<mxfile host="65bd71144e" pages="5">
    <diagram name="AKS" id="uN7CGvEaiBTlguin2hiT">
        <mxGraphModel dx="8645" dy="9115" grid="1" gridSize="10" guides="1" tooltips="1" connect="1" arrows="1" fold="1" page="1" pageScale="1" pageWidth="850" pageHeight="1100" math="0" shadow="0">
            <root>
                <mxCell id="0"/>
                <mxCell id="1" parent="0"/>
                <mxCell id="2" style="edgeStyle=none;curved=1;sketch=0;hachureGap=4;jiggle=2;disableMultiStroke=1;curveFitting=1;orthogonalLoop=1;jettySize=auto;html=1;dashed=1;strokeColor=#FF8000;strokeWidth=6;fontFamily=Comic Sans MS;fontSize=40;fontColor=#3399FF;startArrow=none;startFill=0;endArrow=classic;endFill=1;startSize=11;endSize=19;" parent="1" edge="1">
                    <mxGeometry relative="1" as="geometry">
                        <mxPoint x="1047.9245283018863" y="-1920" as="sourcePoint"/>
                        <mxPoint x="980" y="-1470" as="targetPoint"/>
                    </mxGeometry>
                </mxCell>
                <mxCell id="TBIVwO9MvjW_WMQPq86C-65" value="base-architecture" parent="0"/>
                <mxCell id="TBIVwO9MvjW_WMQPq86C-161" value="" style="group;fillColor=#dae8fc;strokeColor=#6c8ebf;" parent="TBIVwO9MvjW_WMQPq86C-65" vertex="1" connectable="0">
                    <mxGeometry x="381" y="-1750" width="2720" height="1440" as="geometry"/>
                </mxCell>
                <mxCell id="TBIVwO9MvjW_WMQPq86C-159" value="&#10;&lt;b style=&quot;border-color: var(--border-color); color: rgb(0, 0, 0); font-family: &amp;quot;Comic Sans MS&amp;quot;; font-size: 40px; font-style: normal; font-variant-ligatures: normal; font-variant-caps: normal; letter-spacing: normal; orphans: 2; text-align: center; text-indent: 0px; text-transform: none; widows: 2; word-spacing: 0px; -webkit-text-stroke-width: 0px; background-color: rgb(251, 251, 251); text-decoration-thickness: initial; text-decoration-style: initial; text-decoration-color: initial;&quot;&gt;&lt;font style=&quot;border-color: var(--border-color);&quot; color=&quot;#0066cc&quot;&gt;Node Network&lt;br style=&quot;border-color: var(--border-color);&quot;&gt;AKS Subnet&lt;/font&gt;&lt;/b&gt;&#10;&#10;" style="whiteSpace=wrap;html=1;rounded=0;sketch=1;hachureGap=-8;jiggle=2;disableMultiStroke=1;disableMultiStrokeFill=1;fillStyle=solid;curveFitting=1;strokeColor=#d6b656;strokeWidth=2;fontFamily=Comic Sans MS;fontSize=20;fillColor=#fff2cc;" parent="TBIVwO9MvjW_WMQPq86C-161" vertex="1">
                    <mxGeometry x="-170" y="-1060" width="2890" height="2500" as="geometry"/>
                </mxCell>
                <UserObject label="&lt;font face=&quot;Comic Sans MS&quot; style=&quot;font-size: 60px;&quot;&gt;&lt;b style=&quot;font-size: 60px;&quot;&gt;Spoke&lt;br&gt;VNET&lt;br&gt;&lt;/b&gt;&lt;/font&gt;" tags="" id="TBIVwO9MvjW_WMQPq86C-10">
                    <mxCell style="text;html=1;align=center;verticalAlign=middle;resizable=0;points=[];autosize=1;strokeColor=none;fillColor=none;sketch=1;curveFitting=1;jiggle=2;fontSize=60;fontFamily=Architects Daughter;strokeWidth=2;" parent="TBIVwO9MvjW_WMQPq86C-161" vertex="1">
                        <mxGeometry x="2469.003938408154" y="-880.0010144927537" width="190" height="170" as="geometry"/>
                    </mxCell>
                </UserObject>
                <mxCell id="TBIVwO9MvjW_WMQPq86C-254" value="" style="rounded=0;whiteSpace=wrap;html=1;sketch=1;hachureGap=-8;jiggle=2;disableMultiStroke=1;disableMultiStrokeFill=1;fillStyle=solid;curveFitting=1;strokeColor=#6c8ebf;strokeWidth=5;fontFamily=Comic Sans MS;fontSize=40;fillColor=#dae8fc;movable=1;resizable=1;rotatable=1;deletable=1;editable=1;connectable=1;" parent="TBIVwO9MvjW_WMQPq86C-65" vertex="1">
                    <mxGeometry x="408" y="-2140" width="1150" height="300" as="geometry"/>
                </mxCell>
                <mxCell id="TBIVwO9MvjW_WMQPq86C-44" value="" style="rounded=0;whiteSpace=wrap;html=1;sketch=1;hachureGap=-8;jiggle=2;disableMultiStroke=1;disableMultiStrokeFill=1;fillStyle=solid;curveFitting=1;strokeColor=#6c8ebf;strokeWidth=5;fontFamily=Comic Sans MS;fontSize=40;fillColor=#dae8fc;movable=1;resizable=1;rotatable=1;deletable=1;editable=1;connectable=1;" parent="TBIVwO9MvjW_WMQPq86C-65" vertex="1">
                    <mxGeometry x="408" y="-1803.33" width="2440" height="1363.33" as="geometry"/>
                </mxCell>
                <UserObject label="" tags="" id="TBIVwO9MvjW_WMQPq86C-19">
                    <mxCell style="edgeStyle=none;shape=connector;rounded=0;orthogonalLoop=1;jettySize=auto;html=1;labelBackgroundColor=default;strokeColor=#3399FF;strokeWidth=8;fontFamily=Comic Sans MS;fontSize=25;fontColor=default;startArrow=diamond;startFill=1;endArrow=diamond;endFill=1;sketch=1;curveFitting=1;jiggle=2;hachureGap=4;fontSource=https%3A%2F%2Ffonts.googleapis.com%2Fcss%3Ffamily%3DArchitects%2BDaughter;disableMultiStroke=1;" parent="TBIVwO9MvjW_WMQPq86C-65" edge="1">
                        <mxGeometry relative="1" as="geometry">
                            <mxPoint x="220" y="-1290" as="sourcePoint"/>
                            <mxPoint x="-250" y="-1290" as="targetPoint"/>
                        </mxGeometry>
                    </mxCell>
                </UserObject>
                <mxCell id="TBIVwO9MvjW_WMQPq86C-162" value="&lt;div style=&quot;text-align: center; font-size: 50px;&quot;&gt;&lt;span style=&quot;background-color: initial;&quot;&gt;&lt;b style=&quot;&quot;&gt;&lt;font style=&quot;font-size: 50px;&quot;&gt;AKS&lt;/font&gt;&lt;/b&gt;&lt;/span&gt;&lt;/div&gt;&lt;div style=&quot;text-align: center; font-size: 50px;&quot;&gt;&lt;span style=&quot;background-color: initial;&quot;&gt;&lt;b style=&quot;&quot;&gt;&lt;font style=&quot;font-size: 50px;&quot;&gt;Subnet&lt;/font&gt;&lt;/b&gt;&lt;/span&gt;&lt;/div&gt;" style="text;whiteSpace=wrap;html=1;fontSize=40;fontFamily=Comic Sans MS;fontColor=#0066CC;" parent="TBIVwO9MvjW_WMQPq86C-65" vertex="1">
                    <mxGeometry x="2620" y="-1610" width="310" height="120" as="geometry"/>
                </mxCell>
                <mxCell id="TBIVwO9MvjW_WMQPq86C-199" value="" style="group" parent="TBIVwO9MvjW_WMQPq86C-65" vertex="1" connectable="0">
                    <mxGeometry x="-2390" y="-1464" width="780" height="1160" as="geometry"/>
                </mxCell>
                <mxCell id="TBIVwO9MvjW_WMQPq86C-28" value="" style="rounded=0;whiteSpace=wrap;html=1;sketch=1;hachureGap=-8;jiggle=2;curveFitting=1;strokeColor=#d79b00;strokeWidth=4;fontFamily=Architects Daughter;fontSource=https%3A%2F%2Ffonts.googleapis.com%2Fcss%3Ffamily%3DArchitects%2BDaughter;fontSize=20;fillColor=#ffe6cc;fillStyle=solid;" parent="TBIVwO9MvjW_WMQPq86C-199" vertex="1">
                    <mxGeometry y="-6" width="780" height="1160" as="geometry"/>
                </mxCell>
                <UserObject label="&lt;b style=&quot;font-size: 60px;&quot;&gt;&lt;font face=&quot;Comic Sans MS&quot; style=&quot;font-size: 60px;&quot;&gt;Branch&lt;/font&gt;&lt;/b&gt;" tags="" id="TBIVwO9MvjW_WMQPq86C-34">
                    <mxCell style="text;html=1;align=center;verticalAlign=middle;resizable=0;points=[];autosize=1;strokeColor=none;fillColor=none;fontSize=60;fontFamily=Architects Daughter;fontColor=#000000;sketch=1;curveFitting=1;jiggle=2;" parent="TBIVwO9MvjW_WMQPq86C-199" vertex="1">
                        <mxGeometry x="105.00197309417035" y="1025.003559322034" width="220" height="90" as="geometry"/>
                    </mxCell>
                </UserObject>
                <mxCell id="TBIVwO9MvjW_WMQPq86C-87" value="" style="image;html=1;image=img/lib/clip_art/networking/Firewall_02_128x128.png;rounded=0;sketch=1;hachureGap=-8;jiggle=2;disableMultiStroke=1;disableMultiStrokeFill=1;fillStyle=solid;curveFitting=1;strokeColor=default;strokeWidth=40;fontFamily=Comic Sans MS;fontSize=60;fontColor=default;fillColor=default;" parent="TBIVwO9MvjW_WMQPq86C-199" vertex="1">
                    <mxGeometry x="610" y="750" width="150" height="150" as="geometry"/>
                </mxCell>
                <mxCell id="TBIVwO9MvjW_WMQPq86C-90" value="" style="sketch=0;pointerEvents=1;shadow=0;dashed=0;html=1;strokeColor=none;fillColor=#505050;labelPosition=center;verticalLabelPosition=bottom;verticalAlign=top;outlineConnect=0;align=center;shape=mxgraph.office.servers.survivable_branch_appliance;rounded=0;hachureGap=-8;jiggle=2;disableMultiStroke=1;disableMultiStrokeFill=1;fillStyle=solid;curveFitting=1;strokeWidth=40;fontFamily=Comic Sans MS;fontSize=60;fontColor=default;" parent="TBIVwO9MvjW_WMQPq86C-199" vertex="1">
                    <mxGeometry x="340" y="990" width="100" height="130" as="geometry"/>
                </mxCell>
                <mxCell id="TBIVwO9MvjW_WMQPq86C-195" value="" style="sketch=0;aspect=fixed;pointerEvents=1;shadow=0;dashed=0;html=1;strokeColor=none;labelPosition=center;verticalLabelPosition=bottom;verticalAlign=top;align=center;fillColor=#00188D;shape=mxgraph.azure.user;rounded=0;hachureGap=-8;jiggle=2;disableMultiStroke=1;disableMultiStrokeFill=1;fillStyle=solid;curveFitting=1;strokeWidth=2;fontFamily=Comic Sans MS;fontSize=35;fontColor=#000000;" parent="TBIVwO9MvjW_WMQPq86C-199" vertex="1">
                    <mxGeometry x="421" y="600" width="107" height="113.83" as="geometry"/>
                </mxCell>
                <mxCell id="TBIVwO9MvjW_WMQPq86C-184" value="" style="aspect=fixed;html=1;points=[];align=center;image;fontSize=12;image=img/lib/azure2/compute/Virtual_Machine.svg;rounded=0;sketch=1;hachureGap=-8;jiggle=2;disableMultiStroke=1;disableMultiStrokeFill=1;fillStyle=solid;curveFitting=1;strokeColor=default;strokeWidth=2;fontFamily=Comic Sans MS;fontColor=#000000;fillColor=default;" parent="TBIVwO9MvjW_WMQPq86C-199" vertex="1">
                    <mxGeometry x="265" y="320" width="69" height="64" as="geometry"/>
                </mxCell>
                <mxCell id="TBIVwO9MvjW_WMQPq86C-185" value="" style="aspect=fixed;html=1;points=[];align=center;image;fontSize=12;image=img/lib/azure2/compute/Virtual_Machine.svg;rounded=0;sketch=1;hachureGap=-8;jiggle=2;disableMultiStroke=1;disableMultiStrokeFill=1;fillStyle=solid;curveFitting=1;strokeColor=default;strokeWidth=2;fontFamily=Comic Sans MS;fontColor=#000000;fillColor=default;" parent="TBIVwO9MvjW_WMQPq86C-199" vertex="1">
                    <mxGeometry x="410" y="320" width="69" height="64" as="geometry"/>
                </mxCell>
                <mxCell id="TBIVwO9MvjW_WMQPq86C-201" value="VNET Peering" style="text;html=1;align=center;verticalAlign=middle;resizable=0;points=[];autosize=1;strokeColor=none;fillColor=none;fontSize=40;fontFamily=Comic Sans MS;fontColor=#3399FF;fontStyle=1" parent="TBIVwO9MvjW_WMQPq86C-65" vertex="1">
                    <mxGeometry x="-180" y="-1370" width="290" height="60" as="geometry"/>
                </mxCell>
                <mxCell id="TBIVwO9MvjW_WMQPq86C-216" value="" style="aspect=fixed;html=1;points=[];align=center;image;fontSize=12;image=img/lib/azure2/networking/Load_Balancers.svg;rounded=0;sketch=1;hachureGap=-8;jiggle=2;disableMultiStroke=1;disableMultiStrokeFill=1;fillStyle=solid;curveFitting=1;strokeColor=default;strokeWidth=40;fontFamily=Comic Sans MS;fontColor=default;fillColor=default;" parent="TBIVwO9MvjW_WMQPq86C-65" vertex="1">
                    <mxGeometry x="1560" y="-3070" width="232" height="232" as="geometry"/>
                </mxCell>
                <mxCell id="TBIVwO9MvjW_WMQPq86C-217" value="&lt;div style=&quot;text-align: center; font-size: 40px;&quot;&gt;External&lt;/div&gt;&lt;div style=&quot;text-align: center; font-size: 40px;&quot;&gt;LB&lt;/div&gt;&lt;div style=&quot;text-align: center; font-size: 40px;&quot;&gt;(Layer 4)&lt;/div&gt;" style="text;whiteSpace=wrap;html=1;fontSize=40;fontFamily=Comic Sans MS;fontColor=#000000;fontStyle=1" parent="TBIVwO9MvjW_WMQPq86C-65" vertex="1">
                    <mxGeometry x="1810" y="-3020" width="310" height="120" as="geometry"/>
                </mxCell>
                <mxCell id="TBIVwO9MvjW_WMQPq86C-221" style="edgeStyle=none;curved=1;sketch=0;hachureGap=4;jiggle=2;disableMultiStroke=1;curveFitting=1;orthogonalLoop=1;jettySize=auto;html=1;exitX=1;exitY=0.5;exitDx=0;exitDy=0;dashed=1;strokeColor=#000000;strokeWidth=8;fontFamily=Comic Sans MS;fontSize=40;fontColor=#3399FF;startArrow=none;startFill=0;endArrow=classic;endFill=1;startSize=11;endSize=19;flowAnimation=1;" parent="TBIVwO9MvjW_WMQPq86C-65" source="TBIVwO9MvjW_WMQPq86C-190" target="TBIVwO9MvjW_WMQPq86C-216" edge="1">
                    <mxGeometry relative="1" as="geometry">
                        <mxPoint x="1679.6532484826348" y="-2664.3910622669027" as="targetPoint"/>
                        <Array as="points">
                            <mxPoint x="1360" y="-3380"/>
                            <mxPoint x="1580" y="-3260"/>
                        </Array>
                    </mxGeometry>
                </mxCell>
                <mxCell id="TBIVwO9MvjW_WMQPq86C-215" value="&lt;div style=&quot;text-align: center; font-size: 50px;&quot;&gt;&lt;b&gt;App GW&lt;/b&gt;&lt;/div&gt;&lt;div style=&quot;text-align: center; font-size: 50px;&quot;&gt;&lt;b&gt;Subnet&lt;/b&gt;&lt;/div&gt;" style="text;whiteSpace=wrap;html=1;fontSize=40;fontFamily=Comic Sans MS;fontColor=#0066CC;" parent="TBIVwO9MvjW_WMQPq86C-65" vertex="1">
                    <mxGeometry x="420" y="-2080" width="310" height="120" as="geometry"/>
                </mxCell>
                <mxCell id="TBIVwO9MvjW_WMQPq86C-253" value="" style="aspect=fixed;html=1;points=[];align=center;image;fontSize=12;image=img/lib/azure2/networking/Application_Gateways.svg;rounded=0;sketch=1;hachureGap=-8;jiggle=2;disableMultiStroke=1;disableMultiStrokeFill=1;fillStyle=solid;curveFitting=1;strokeColor=default;strokeWidth=2;fontFamily=Comic Sans MS;fontColor=#3399FF;fillColor=default;" parent="TBIVwO9MvjW_WMQPq86C-65" vertex="1">
                    <mxGeometry x="970" y="-2090" width="160" height="160" as="geometry"/>
                </mxCell>
                <UserObject label="" tags="" id="TBIVwO9MvjW_WMQPq86C-8">
                    <mxCell style="aspect=fixed;html=1;points=[];align=center;image;fontSize=12;image=img/lib/azure2/networking/Virtual_Networks.svg;rounded=0;glass=0;labelBackgroundColor=#66B2FF;fillStyle=hachure;fontFamily=Comic Sans MS;fontColor=#000000;opacity=70;sketch=1;curveFitting=1;jiggle=2;hachureGap=4;fontSource=https%3A%2F%2Ffonts.googleapis.com%2Fcss%3Ffamily%3DArchitects%2BDaughter;" parent="TBIVwO9MvjW_WMQPq86C-65" vertex="1">
                        <mxGeometry x="2891.997536326176" y="-2769.9973913043477" width="165.31229390681003" height="98.69390681003583" as="geometry"/>
                    </mxCell>
                </UserObject>
                <mxCell id="TBIVwO9MvjW_WMQPq86C-27" value="" style="group;fillColor=#dae8fc;strokeColor=#6c8ebf;strokeWidth=4;container=0;" parent="TBIVwO9MvjW_WMQPq86C-65" vertex="1" connectable="0">
                    <mxGeometry x="-1110" y="-1810" width="850" height="1510" as="geometry"/>
                </mxCell>
                <UserObject label="&lt;b style=&quot;font-size: 60px;&quot;&gt;&lt;font face=&quot;Comic Sans MS&quot; style=&quot;font-size: 60px;&quot;&gt;HUB&lt;/font&gt;&lt;/b&gt;" tags="" id="TBIVwO9MvjW_WMQPq86C-4">
                    <mxCell style="text;html=1;align=center;verticalAlign=middle;resizable=0;points=[];autosize=1;strokeColor=none;fillColor=none;fontSize=60;fontFamily=Architects Daughter;fontColor=#000000;sketch=1;curveFitting=1;jiggle=2;" parent="TBIVwO9MvjW_WMQPq86C-65" vertex="1">
                        <mxGeometry x="-939.9980269058296" y="-1789.9982668535745" width="150" height="90" as="geometry"/>
                    </mxCell>
                </UserObject>
                <UserObject label="" tags="" id="TBIVwO9MvjW_WMQPq86C-12">
                    <mxCell style="aspect=fixed;html=1;points=[];align=center;image;fontSize=12;image=img/lib/azure2/networking/Virtual_Networks.svg;rounded=0;glass=0;labelBackgroundColor=#66B2FF;fillStyle=hachure;fontFamily=Comic Sans MS;fontColor=#000000;opacity=70;sketch=1;curveFitting=1;jiggle=2;hachureGap=4;fontSource=https%3A%2F%2Ffonts.googleapis.com%2Fcss%3Ffamily%3DArchitects%2BDaughter;" parent="TBIVwO9MvjW_WMQPq86C-65" vertex="1">
                        <mxGeometry x="-1110" y="-1800.0041353383458" width="174.34" height="104.08" as="geometry"/>
                    </mxCell>
                </UserObject>
                <UserObject label="" tags="" id="TBIVwO9MvjW_WMQPq86C-13">
                    <mxCell style="aspect=fixed;html=1;points=[];align=center;image;fontSize=12;image=img/lib/azure2/networking/Virtual_Network_Gateways.svg;rounded=0;glass=0;labelBackgroundColor=#66B2FF;fillStyle=hachure;fontFamily=Comic Sans MS;fontColor=#000000;opacity=70;sketch=1;curveFitting=1;jiggle=2;hachureGap=4;fontSource=https%3A%2F%2Ffonts.googleapis.com%2Fcss%3Ffamily%3DArchitects%2BDaughter;" parent="TBIVwO9MvjW_WMQPq86C-65" vertex="1">
                        <mxGeometry x="-1054" y="-719.8345864661653" width="92.31" height="122.49" as="geometry"/>
                    </mxCell>
                </UserObject>
                <UserObject label="&lt;font face=&quot;Comic Sans MS&quot; style=&quot;font-size: 40px;&quot;&gt;Gateway Subnet&lt;/font&gt;" tags="" id="TBIVwO9MvjW_WMQPq86C-17">
                    <mxCell style="text;html=1;align=center;verticalAlign=middle;resizable=0;points=[];autosize=1;strokeColor=none;fillColor=none;fontSize=40;fontFamily=Architects Daughter;fontColor=#000000;sketch=1;curveFitting=1;jiggle=2;fontStyle=1" parent="TBIVwO9MvjW_WMQPq86C-65" vertex="1">
                        <mxGeometry x="-865" y="-482.34026106428314" width="340" height="70" as="geometry"/>
                    </mxCell>
                </UserObject>
                <UserObject label="&lt;b style=&quot;font-size: 40px;&quot;&gt;VPN GW&lt;/b&gt;" tags="" id="TBIVwO9MvjW_WMQPq86C-29">
                    <mxCell style="text;html=1;align=center;verticalAlign=middle;resizable=0;points=[];autosize=1;strokeColor=none;fillColor=none;fontSize=40;fontFamily=Comic Sans MS;fontColor=#000000;sketch=1;curveFitting=1;jiggle=2;" parent="TBIVwO9MvjW_WMQPq86C-65" vertex="1">
                        <mxGeometry x="-1089.9997757847534" y="-569.9979466220029" width="190" height="60" as="geometry"/>
                    </mxCell>
                </UserObject>
                <UserObject label="" tags="" id="TBIVwO9MvjW_WMQPq86C-32">
                    <mxCell style="aspect=fixed;html=1;points=[];align=center;image;fontSize=12;image=img/lib/azure2/networking/Virtual_Network_Gateways.svg;rounded=0;glass=0;labelBackgroundColor=#66B2FF;fillStyle=hachure;fontFamily=Comic Sans MS;fontColor=#000000;opacity=70;sketch=1;curveFitting=1;jiggle=2;hachureGap=4;fontSource=https%3A%2F%2Ffonts.googleapis.com%2Fcss%3Ffamily%3DArchitects%2BDaughter;" parent="TBIVwO9MvjW_WMQPq86C-65" vertex="1">
                        <mxGeometry x="-430" y="-710.0045864661654" width="92.31" height="122.49" as="geometry"/>
                    </mxCell>
                </UserObject>
                <UserObject label="&lt;b style=&quot;font-size: 40px;&quot;&gt;ER GW&lt;/b&gt;" tags="" id="TBIVwO9MvjW_WMQPq86C-33">
                    <mxCell style="text;html=1;align=center;verticalAlign=middle;resizable=0;points=[];autosize=1;strokeColor=none;fillColor=none;fontSize=40;fontFamily=Comic Sans MS;fontColor=#000000;sketch=1;curveFitting=1;jiggle=2;" parent="TBIVwO9MvjW_WMQPq86C-65" vertex="1">
                        <mxGeometry x="-459.99977578475335" y="-549.9979466220029" width="160" height="60" as="geometry"/>
                    </mxCell>
                </UserObject>
                <UserObject label="" tags="" id="qUfyDGxGpHKbPqtfmTrg-6">
                    <mxCell style="edgeStyle=none;jumpStyle=none;jumpSize=2;orthogonalLoop=1;jettySize=auto;html=1;shadow=0;strokeColor=#3399FF;strokeWidth=6;fontFamily=Comic Sans MS;fontSize=25;fontColor=#000000;startArrow=none;startFill=0;endArrow=none;endFill=0;rounded=0;sketch=1;curveFitting=1;jiggle=2;hachureGap=4;fontSource=https%3A%2F%2Ffonts.googleapis.com%2Fcss%3Ffamily%3DArchitects%2BDaughter;disableMultiStroke=1;" parent="TBIVwO9MvjW_WMQPq86C-65" edge="1">
                        <mxGeometry relative="1" as="geometry">
                            <mxPoint x="-1100" y="-1080" as="sourcePoint"/>
                            <mxPoint x="-270" y="-1080" as="targetPoint"/>
                        </mxGeometry>
                    </mxCell>
                </UserObject>
                <UserObject label="&lt;font style=&quot;font-size: 40px;&quot;&gt;&lt;b&gt;Internet&lt;/b&gt;&lt;/font&gt;" tags="" id="qUfyDGxGpHKbPqtfmTrg-16">
                    <mxCell style="ellipse;shape=cloud;whiteSpace=wrap;html=1;rounded=0;glass=0;labelBackgroundColor=default;fillStyle=auto;strokeColor=#000000;strokeWidth=4;fontFamily=Comic Sans MS;fontSize=25;fontColor=#000000;fillColor=none;gradientColor=none;opacity=70;sketch=1;curveFitting=1;jiggle=2;hachureGap=4;fontSource=https%3A%2F%2Ffonts.googleapis.com%2Fcss%3Ffamily%3DArchitects%2BDaughter;disableMultiStrokeFill=1;disableMultiStroke=1;" parent="TBIVwO9MvjW_WMQPq86C-65" vertex="1">
                        <mxGeometry x="-1550" y="-3230" width="4500" height="140" as="geometry"/>
                    </mxCell>
                </UserObject>
                <mxCell id="TBIVwO9MvjW_WMQPq86C-196" value="" style="aspect=fixed;html=1;points=[];align=center;image;fontSize=12;image=img/lib/azure2/networking/Load_Balancers.svg;rounded=0;sketch=1;hachureGap=-8;jiggle=2;disableMultiStroke=1;disableMultiStrokeFill=1;fillStyle=solid;curveFitting=1;strokeColor=default;strokeWidth=40;fontFamily=Comic Sans MS;fontColor=default;fillColor=default;" parent="TBIVwO9MvjW_WMQPq86C-65" vertex="1">
                    <mxGeometry x="700" y="-1760" width="172" height="172" as="geometry"/>
                </mxCell>
                <UserObject label="" tags="" id="TBIVwO9MvjW_WMQPq86C-23">
                    <mxCell style="edgeStyle=none;jumpStyle=none;jumpSize=2;orthogonalLoop=1;jettySize=auto;html=1;shadow=0;strokeColor=#3399FF;strokeWidth=6;fontFamily=Comic Sans MS;fontSize=25;fontColor=#000000;startArrow=none;startFill=0;endArrow=none;endFill=0;rounded=0;sketch=1;curveFitting=1;jiggle=2;hachureGap=4;fontSource=https%3A%2F%2Ffonts.googleapis.com%2Fcss%3Ffamily%3DArchitects%2BDaughter;disableMultiStroke=1;" parent="TBIVwO9MvjW_WMQPq86C-65" edge="1">
                        <mxGeometry relative="1" as="geometry">
                            <mxPoint x="-1100" y="-753" as="sourcePoint"/>
                            <mxPoint x="-270" y="-753" as="targetPoint"/>
                        </mxGeometry>
                    </mxCell>
                </UserObject>
                <UserObject label="&lt;font size=&quot;1&quot; face=&quot;Comic Sans MS&quot;&gt;&lt;b style=&quot;font-size: 40px;&quot;&gt;DNS VM&lt;/b&gt;&lt;/font&gt;" tags="" id="2g-Eaq45xLmQXgfcdr5T-6">
                    <mxCell style="text;html=1;align=center;verticalAlign=middle;resizable=0;points=[];autosize=1;strokeColor=none;fillColor=none;fontSize=60;fontFamily=Architects Daughter;fontColor=#000000;sketch=1;curveFitting=1;jiggle=2;" parent="TBIVwO9MvjW_WMQPq86C-65" vertex="1">
                        <mxGeometry x="-689.9980269058296" y="-939.9982668535745" width="190" height="90" as="geometry"/>
                    </mxCell>
                </UserObject>
                <mxCell id="TBIVwO9MvjW_WMQPq86C-183" value="" style="aspect=fixed;html=1;points=[];align=center;image;fontSize=12;image=img/lib/azure2/compute/Virtual_Machine.svg;rounded=0;sketch=1;hachureGap=-8;jiggle=2;disableMultiStroke=1;disableMultiStrokeFill=1;fillStyle=solid;curveFitting=1;strokeColor=default;strokeWidth=2;fontFamily=Comic Sans MS;fontColor=#000000;fillColor=default;" parent="TBIVwO9MvjW_WMQPq86C-65" vertex="1">
                    <mxGeometry x="-790" y="-930" width="69" height="64" as="geometry"/>
                </mxCell>
                <mxCell id="TBIVwO9MvjW_WMQPq86C-180" value="&lt;div style=&quot;text-align: center; font-size: 40px;&quot;&gt;&lt;b style=&quot;font-size: 40px;&quot;&gt;Application&lt;/b&gt;&lt;/div&gt;&lt;div style=&quot;text-align: center; font-size: 40px;&quot;&gt;&lt;b style=&quot;font-size: 40px;&quot;&gt;Gateway&lt;/b&gt;&lt;/div&gt;&lt;div style=&quot;text-align: center; font-size: 40px;&quot;&gt;&lt;b style=&quot;font-size: 40px;&quot;&gt;Layer 7&lt;/b&gt;&lt;/div&gt;" style="text;whiteSpace=wrap;html=1;fontSize=40;fontFamily=Comic Sans MS;fontColor=#000000;" parent="TBIVwO9MvjW_WMQPq86C-65" vertex="1">
                    <mxGeometry x="630" y="-2090" width="310" height="120" as="geometry"/>
                </mxCell>
                <UserObject label="" tags="" id="TBIVwO9MvjW_WMQPq86C-35">
                    <mxCell style="edgeStyle=none;shape=connector;rounded=0;orthogonalLoop=1;jettySize=auto;html=1;labelBackgroundColor=default;strokeColor=#3399FF;strokeWidth=6;fontFamily=Comic Sans MS;fontSize=25;fontColor=default;startArrow=diamond;startFill=1;endArrow=diamond;endFill=1;sketch=1;curveFitting=1;jiggle=2;hachureGap=4;fontSource=https%3A%2F%2Ffonts.googleapis.com%2Fcss%3Ffamily%3DArchitects%2BDaughter;disableMultiStroke=1;" parent="TBIVwO9MvjW_WMQPq86C-65" target="TBIVwO9MvjW_WMQPq86C-87" edge="1">
                        <mxGeometry relative="1" as="geometry">
                            <mxPoint x="-1050" y="-644" as="sourcePoint"/>
                            <mxPoint x="-2180" y="-809.8800000000001" as="targetPoint"/>
                        </mxGeometry>
                    </mxCell>
                </UserObject>
                <mxCell id="TBIVwO9MvjW_WMQPq86C-91" value="&lt;font style=&quot;font-size: 40px;&quot;&gt;&lt;b&gt;IPSec VPN Tunnel&lt;/b&gt;&lt;/font&gt;" style="edgeLabel;html=1;align=center;verticalAlign=middle;resizable=0;points=[];fontSize=60;fontFamily=Comic Sans MS;fontColor=#3399FF;" parent="TBIVwO9MvjW_WMQPq86C-35" vertex="1" connectable="0">
                    <mxGeometry x="0.2969" y="-15" relative="1" as="geometry">
                        <mxPoint x="67" y="25" as="offset"/>
                    </mxGeometry>
                </mxCell>
                <mxCell id="17" value="" style="aspect=fixed;html=1;points=[];align=center;image;fontSize=12;image=img/lib/azure2/networking/NAT.svg;shadow=0;glass=0;labelBackgroundColor=none;fontFamily=Comic Sans MS;fontColor=#000000;" parent="TBIVwO9MvjW_WMQPq86C-65" vertex="1">
                    <mxGeometry x="2630" y="-3060" width="170" height="170" as="geometry"/>
                </mxCell>
                <mxCell id="18" value="&lt;div style=&quot;text-align: center; font-size: 40px;&quot;&gt;NAT GW&lt;/div&gt;" style="text;whiteSpace=wrap;html=1;fontSize=40;fontFamily=Comic Sans MS;fontColor=#000000;fontStyle=1" parent="TBIVwO9MvjW_WMQPq86C-65" vertex="1">
                    <mxGeometry x="2830" y="-3014" width="310" height="120" as="geometry"/>
                </mxCell>
                <mxCell id="22" value="&lt;div style=&quot;text-align: center;&quot;&gt;&lt;font style=&quot;font-size: 40px;&quot;&gt;&lt;b&gt;Internal LB&lt;/b&gt;&lt;/font&gt;&lt;/div&gt;" style="text;whiteSpace=wrap;html=1;fontSize=35;fontFamily=Comic Sans MS;fontColor=#000000;" parent="TBIVwO9MvjW_WMQPq86C-65" vertex="1">
                    <mxGeometry x="880" y="-1670" width="310" height="120" as="geometry"/>
                </mxCell>
                <UserObject label="" tags="" id="23">
                    <mxCell style="edgeStyle=none;jumpStyle=none;jumpSize=2;orthogonalLoop=1;jettySize=auto;html=1;shadow=0;strokeColor=#3399FF;strokeWidth=6;fontFamily=Comic Sans MS;fontSize=25;fontColor=#000000;startArrow=none;startFill=0;endArrow=none;endFill=0;rounded=0;sketch=1;curveFitting=1;jiggle=2;hachureGap=4;fontSource=https%3A%2F%2Ffonts.googleapis.com%2Fcss%3Ffamily%3DArchitects%2BDaughter;disableMultiStroke=1;" parent="TBIVwO9MvjW_WMQPq86C-65" edge="1">
                        <mxGeometry relative="1" as="geometry">
                            <mxPoint x="-1100" y="-1610" as="sourcePoint"/>
                            <mxPoint x="-270" y="-1610" as="targetPoint"/>
                        </mxGeometry>
                    </mxCell>
                </UserObject>
                <mxCell id="TBIVwO9MvjW_WMQPq86C-233" value="" style="aspect=fixed;html=1;points=[];align=center;image;fontSize=12;image=img/lib/azure2/networking/Firewalls.svg;rounded=0;sketch=1;hachureGap=-8;jiggle=2;disableMultiStroke=1;disableMultiStrokeFill=1;fillStyle=solid;curveFitting=1;strokeColor=default;strokeWidth=2;fontFamily=Comic Sans MS;fontColor=#CC00CC;fillColor=default;" parent="TBIVwO9MvjW_WMQPq86C-65" vertex="1">
                    <mxGeometry x="-1020" y="-1570" width="191" height="161.41" as="geometry"/>
                </mxCell>
                <mxCell id="TBIVwO9MvjW_WMQPq86C-234" value="&lt;div style=&quot;text-align: center; font-size: 50px;&quot;&gt;&lt;b&gt;AzFW Subnet&lt;/b&gt;&lt;/div&gt;" style="text;whiteSpace=wrap;html=1;fontSize=40;fontFamily=Comic Sans MS;fontColor=#0066CC;" parent="TBIVwO9MvjW_WMQPq86C-65" vertex="1">
                    <mxGeometry x="-740" y="-1550" width="310" height="120" as="geometry"/>
                </mxCell>
                <mxCell id="TBIVwO9MvjW_WMQPq86C-69" value="AKS Nodes" style="" parent="0"/>
                <mxCell id="TBIVwO9MvjW_WMQPq86C-49" style="edgeStyle=none;rounded=0;sketch=1;hachureGap=4;jiggle=2;disableMultiStroke=1;curveFitting=1;orthogonalLoop=1;jettySize=auto;html=1;exitX=0.694;exitY=0.037;exitDx=0;exitDy=0;strokeWidth=5;fontFamily=Comic Sans MS;fontSize=40;fontColor=default;endArrow=box;endFill=0;endSize=19;startSize=11;exitPerimeter=0;" parent="TBIVwO9MvjW_WMQPq86C-69" source="TBIVwO9MvjW_WMQPq86C-40" edge="1">
                    <mxGeometry relative="1" as="geometry">
                        <mxPoint x="1123" y="-1480" as="targetPoint"/>
                    </mxGeometry>
                </mxCell>
                <mxCell id="TBIVwO9MvjW_WMQPq86C-40" value="" style="whiteSpace=wrap;html=1;aspect=fixed;rounded=0;sketch=1;hachureGap=-8;jiggle=2;disableMultiStroke=1;disableMultiStrokeFill=1;fillStyle=solid;curveFitting=1;strokeColor=#9673a6;strokeWidth=4;fontFamily=Comic Sans MS;fontSize=40;fillColor=#e1d5e7;" parent="TBIVwO9MvjW_WMQPq86C-69" vertex="1">
                    <mxGeometry x="810" y="-1110" width="460" height="460" as="geometry"/>
                </mxCell>
                <mxCell id="TBIVwO9MvjW_WMQPq86C-42" value="" style="whiteSpace=wrap;html=1;aspect=fixed;rounded=0;sketch=1;hachureGap=-8;jiggle=2;disableMultiStroke=1;disableMultiStrokeFill=1;fillStyle=solid;curveFitting=1;strokeColor=#9673a6;strokeWidth=4;fontFamily=Comic Sans MS;fontSize=40;fillColor=#e1d5e7;" parent="TBIVwO9MvjW_WMQPq86C-69" vertex="1">
                    <mxGeometry x="1434" y="-1117" width="456" height="456" as="geometry"/>
                </mxCell>
                <mxCell id="TBIVwO9MvjW_WMQPq86C-43" value="" style="whiteSpace=wrap;html=1;aspect=fixed;rounded=0;sketch=1;hachureGap=-8;jiggle=2;disableMultiStroke=1;disableMultiStrokeFill=1;fillStyle=solid;curveFitting=1;strokeColor=#9673a6;strokeWidth=4;fontFamily=Comic Sans MS;fontSize=40;fillColor=#e1d5e7;" parent="TBIVwO9MvjW_WMQPq86C-69" vertex="1">
                    <mxGeometry x="2053" y="-1120" width="447" height="447" as="geometry"/>
                </mxCell>
                <mxCell id="TBIVwO9MvjW_WMQPq86C-45" style="rounded=0;hachureGap=4;disableMultiStroke=1;orthogonalLoop=1;jettySize=auto;html=1;strokeWidth=6;fontFamily=Comic Sans MS;fontSize=40;fontColor=default;endArrow=none;endFill=0;strokeColor=#0066CC;startArrow=none;entryX=0.998;entryY=0.236;entryDx=0;entryDy=0;entryPerimeter=0;" parent="TBIVwO9MvjW_WMQPq86C-69" target="TBIVwO9MvjW_WMQPq86C-44" edge="1">
                    <mxGeometry relative="1" as="geometry">
                        <mxPoint x="410" y="-1484" as="sourcePoint"/>
                        <mxPoint x="2780" y="-1480" as="targetPoint"/>
                    </mxGeometry>
                </mxCell>
                <mxCell id="TBIVwO9MvjW_WMQPq86C-50" style="edgeStyle=none;rounded=0;sketch=1;hachureGap=4;jiggle=2;disableMultiStroke=1;curveFitting=1;orthogonalLoop=1;jettySize=auto;html=1;strokeWidth=5;fontFamily=Comic Sans MS;fontSize=40;fontColor=default;endArrow=box;endFill=0;endSize=19;startSize=11;" parent="TBIVwO9MvjW_WMQPq86C-69" edge="1">
                    <mxGeometry relative="1" as="geometry">
                        <mxPoint x="1720" y="-1120" as="sourcePoint"/>
                        <mxPoint x="1720" y="-1476" as="targetPoint"/>
                        <Array as="points"/>
                    </mxGeometry>
                </mxCell>
                <mxCell id="TBIVwO9MvjW_WMQPq86C-51" style="edgeStyle=none;rounded=0;sketch=1;hachureGap=4;jiggle=2;disableMultiStroke=1;curveFitting=1;orthogonalLoop=1;jettySize=auto;html=1;strokeWidth=5;fontFamily=Comic Sans MS;fontSize=40;fontColor=default;endArrow=box;endFill=0;endSize=19;startSize=11;" parent="TBIVwO9MvjW_WMQPq86C-69" edge="1">
                    <mxGeometry relative="1" as="geometry">
                        <mxPoint x="2300" y="-1120" as="sourcePoint"/>
                        <mxPoint x="2293" y="-1480" as="targetPoint"/>
                    </mxGeometry>
                </mxCell>
                <UserObject label="&lt;font face=&quot;Comic Sans MS&quot; style=&quot;font-size: 40px;&quot;&gt;&lt;b&gt;Cluster Network&lt;/b&gt;&lt;/font&gt;" tags="" id="TBIVwO9MvjW_WMQPq86C-58">
                    <mxCell style="text;html=1;align=center;verticalAlign=middle;resizable=0;points=[];autosize=1;strokeColor=none;fillColor=none;sketch=1;curveFitting=1;jiggle=2;fontSize=20;fontFamily=Architects Daughter;strokeWidth=40;" parent="TBIVwO9MvjW_WMQPq86C-69" vertex="1">
                        <mxGeometry x="406.00393840815434" y="-989.9973913043477" width="340" height="60" as="geometry"/>
                    </mxCell>
                </UserObject>
                <mxCell id="TBIVwO9MvjW_WMQPq86C-59" value="" style="whiteSpace=wrap;html=1;aspect=fixed;rounded=0;sketch=1;hachureGap=-8;jiggle=2;disableMultiStroke=1;disableMultiStrokeFill=1;fillStyle=solid;curveFitting=1;strokeColor=#B20000;strokeWidth=2;fontFamily=Comic Sans MS;fontSize=40;fontColor=#ffffff;fillColor=#e51400;" parent="TBIVwO9MvjW_WMQPq86C-69" vertex="1">
                    <mxGeometry x="850" y="-830" width="120" height="120" as="geometry"/>
                </mxCell>
                <UserObject label="&lt;font face=&quot;Comic Sans MS&quot; style=&quot;font-size: 40px;&quot;&gt;&lt;b&gt;Node-1&lt;/b&gt;&lt;/font&gt;" tags="" id="TBIVwO9MvjW_WMQPq86C-71">
                    <mxCell style="text;html=1;align=center;verticalAlign=middle;resizable=0;points=[];autosize=1;strokeColor=none;fillColor=none;sketch=1;curveFitting=1;jiggle=2;fontSize=20;fontFamily=Architects Daughter;strokeWidth=40;" parent="TBIVwO9MvjW_WMQPq86C-69" vertex="1">
                        <mxGeometry x="940.0039384081542" y="-708.9973913043477" width="170" height="60" as="geometry"/>
                    </mxCell>
                </UserObject>
                <UserObject label="&lt;font face=&quot;Comic Sans MS&quot; style=&quot;font-size: 40px;&quot;&gt;&lt;b&gt;Node-2&lt;/b&gt;&lt;/font&gt;" tags="" id="TBIVwO9MvjW_WMQPq86C-72">
                    <mxCell style="text;html=1;align=center;verticalAlign=middle;resizable=0;points=[];autosize=1;strokeColor=none;fillColor=none;sketch=1;curveFitting=1;jiggle=2;fontSize=20;fontFamily=Architects Daughter;strokeWidth=40;" parent="TBIVwO9MvjW_WMQPq86C-69" vertex="1">
                        <mxGeometry x="1590.0039384081542" y="-719.9973913043477" width="170" height="60" as="geometry"/>
                    </mxCell>
                </UserObject>
                <UserObject label="&lt;font face=&quot;Comic Sans MS&quot; style=&quot;font-size: 40px;&quot;&gt;&lt;b&gt;Node-3&lt;/b&gt;&lt;/font&gt;" tags="" id="TBIVwO9MvjW_WMQPq86C-73">
                    <mxCell style="text;html=1;align=center;verticalAlign=middle;resizable=0;points=[];autosize=1;strokeColor=none;fillColor=none;sketch=1;curveFitting=1;jiggle=2;fontSize=20;fontFamily=Architects Daughter;strokeWidth=40;" parent="TBIVwO9MvjW_WMQPq86C-69" vertex="1">
                        <mxGeometry x="2210.003938408154" y="-719.9973913043477" width="170" height="60" as="geometry"/>
                    </mxCell>
                </UserObject>
                <mxCell id="TBIVwO9MvjW_WMQPq86C-101" value="" style="whiteSpace=wrap;html=1;aspect=fixed;rounded=0;sketch=1;hachureGap=-8;jiggle=2;disableMultiStroke=1;disableMultiStrokeFill=1;fillStyle=solid;curveFitting=1;strokeColor=#2D7600;strokeWidth=2;fontFamily=Comic Sans MS;fontSize=40;fontColor=#ffffff;fillColor=#60a917;" parent="TBIVwO9MvjW_WMQPq86C-69" vertex="1">
                    <mxGeometry x="1093" y="-834" width="120" height="120" as="geometry"/>
                </mxCell>
                <mxCell id="TBIVwO9MvjW_WMQPq86C-60" value="" style="whiteSpace=wrap;html=1;aspect=fixed;rounded=0;sketch=1;hachureGap=-8;jiggle=2;disableMultiStroke=1;disableMultiStrokeFill=1;fillStyle=solid;curveFitting=1;strokeColor=#2D7600;strokeWidth=2;fontFamily=Comic Sans MS;fontSize=40;fontColor=#ffffff;fillColor=#60a917;" parent="TBIVwO9MvjW_WMQPq86C-69" vertex="1">
                    <mxGeometry x="1695" y="-847" width="120" height="120" as="geometry"/>
                </mxCell>
                <mxCell id="TBIVwO9MvjW_WMQPq86C-104" value="" style="whiteSpace=wrap;html=1;aspect=fixed;rounded=0;sketch=1;hachureGap=-8;jiggle=2;disableMultiStroke=1;disableMultiStrokeFill=1;fillStyle=solid;curveFitting=1;strokeColor=#2D7600;strokeWidth=2;fontFamily=Comic Sans MS;fontSize=40;fontColor=#ffffff;fillColor=#60a917;" parent="TBIVwO9MvjW_WMQPq86C-69" vertex="1">
                    <mxGeometry x="2350" y="-840" width="120" height="120" as="geometry"/>
                </mxCell>
                <mxCell id="TBIVwO9MvjW_WMQPq86C-103" value="" style="whiteSpace=wrap;html=1;aspect=fixed;rounded=0;sketch=1;hachureGap=-8;jiggle=2;disableMultiStroke=1;disableMultiStrokeFill=1;fillStyle=solid;curveFitting=1;strokeColor=#B20000;strokeWidth=2;fontFamily=Comic Sans MS;fontSize=40;fontColor=#ffffff;fillColor=#e51400;" parent="TBIVwO9MvjW_WMQPq86C-69" vertex="1">
                    <mxGeometry x="2125" y="-840" width="120" height="120" as="geometry"/>
                </mxCell>
                <mxCell id="TBIVwO9MvjW_WMQPq86C-102" value="" style="whiteSpace=wrap;html=1;aspect=fixed;rounded=0;sketch=1;hachureGap=-8;jiggle=2;disableMultiStroke=1;disableMultiStrokeFill=1;fillStyle=solid;curveFitting=1;strokeColor=#B20000;strokeWidth=2;fontFamily=Comic Sans MS;fontSize=40;fontColor=#ffffff;fillColor=#e51400;" parent="TBIVwO9MvjW_WMQPq86C-69" vertex="1">
                    <mxGeometry x="1510" y="-842" width="120" height="120" as="geometry"/>
                </mxCell>
                <mxCell id="TBIVwO9MvjW_WMQPq86C-163" value="" style="rounded=0;hachureGap=4;disableMultiStroke=1;orthogonalLoop=1;jettySize=auto;html=1;exitX=0;exitY=0.25;exitDx=0;exitDy=0;strokeWidth=6;fontFamily=Comic Sans MS;fontSize=40;fontColor=default;endArrow=none;endFill=0;strokeColor=#0066CC;" parent="TBIVwO9MvjW_WMQPq86C-69" source="TBIVwO9MvjW_WMQPq86C-44" edge="1">
                    <mxGeometry relative="1" as="geometry">
                        <mxPoint x="408" y="-1465" as="sourcePoint"/>
                        <mxPoint x="410.0039384081547" y="-1465.1318002456119" as="targetPoint"/>
                    </mxGeometry>
                </mxCell>
                <UserObject label="&lt;font face=&quot;Comic Sans MS&quot; color=&quot;#3399ff&quot;&gt;&lt;span style=&quot;font-size: 40px;&quot;&gt;&lt;b&gt;Node Network&lt;/b&gt;&lt;/span&gt;&lt;/font&gt;" tags="" id="TBIVwO9MvjW_WMQPq86C-164">
                    <mxCell style="text;html=1;align=center;verticalAlign=middle;resizable=0;points=[];autosize=1;strokeColor=none;fillColor=none;sketch=1;curveFitting=1;jiggle=2;fontSize=20;fontFamily=Architects Daughter;strokeWidth=40;" parent="TBIVwO9MvjW_WMQPq86C-69" vertex="1">
                        <mxGeometry x="405.00393840815434" y="-1569.9973913043477" width="300" height="60" as="geometry"/>
                    </mxCell>
                </UserObject>
                <UserObject label="&lt;font face=&quot;Comic Sans MS&quot; style=&quot;font-size: 60px;&quot;&gt;&lt;b style=&quot;font-size: 60px;&quot;&gt;AKS Cluster&lt;/b&gt;&lt;/font&gt;" tags="" id="TBIVwO9MvjW_WMQPq86C-153">
                    <mxCell style="text;html=1;align=center;verticalAlign=middle;resizable=0;points=[];autosize=1;strokeColor=none;fillColor=none;sketch=1;curveFitting=1;jiggle=2;fontSize=60;fontFamily=Architects Daughter;strokeWidth=2;" parent="TBIVwO9MvjW_WMQPq86C-69" vertex="1">
                        <mxGeometry x="1700.0039384081542" y="-557.6473913043478" width="380" height="90" as="geometry"/>
                    </mxCell>
                </UserObject>
                <mxCell id="TBIVwO9MvjW_WMQPq86C-152" value="" style="aspect=fixed;html=1;points=[];align=center;image;fontSize=12;image=img/lib/azure2/containers/Kubernetes_Services.svg;rounded=0;sketch=1;hachureGap=-8;jiggle=2;disableMultiStroke=1;disableMultiStrokeFill=1;fillStyle=solid;curveFitting=1;strokeColor=default;strokeWidth=2;fontFamily=Comic Sans MS;fontColor=#0066CC;fillColor=default;" parent="TBIVwO9MvjW_WMQPq86C-69" vertex="1">
                    <mxGeometry x="1550" y="-570" width="130" height="114.71" as="geometry"/>
                </mxCell>
                <mxCell id="TBIVwO9MvjW_WMQPq86C-173" style="rounded=0;hachureGap=4;disableMultiStroke=1;orthogonalLoop=1;jettySize=auto;html=1;strokeWidth=6;fontFamily=Comic Sans MS;fontSize=40;fontColor=default;endArrow=none;endFill=0;strokeColor=#000000;startArrow=none;" parent="TBIVwO9MvjW_WMQPq86C-69" edge="1">
                    <mxGeometry relative="1" as="geometry">
                        <mxPoint x="425" y="-909.16" as="sourcePoint"/>
                        <mxPoint x="2850" y="-929" as="targetPoint"/>
                    </mxGeometry>
                </mxCell>
                <mxCell id="TBIVwO9MvjW_WMQPq86C-144" value="" style="whiteSpace=wrap;html=1;aspect=fixed;rounded=0;sketch=1;hachureGap=-8;jiggle=2;disableMultiStroke=1;disableMultiStrokeFill=1;fillStyle=solid;curveFitting=1;strokeColor=#2D7600;strokeWidth=2;fontFamily=Comic Sans MS;fontSize=40;fontColor=#ffffff;fillColor=#60a917;" parent="TBIVwO9MvjW_WMQPq86C-69" vertex="1">
                    <mxGeometry x="1940" y="-950" width="29" height="29" as="geometry"/>
                </mxCell>
                <mxCell id="TBIVwO9MvjW_WMQPq86C-140" value="" style="whiteSpace=wrap;html=1;aspect=fixed;rounded=0;sketch=1;hachureGap=-8;jiggle=2;disableMultiStroke=1;disableMultiStrokeFill=1;fillStyle=solid;curveFitting=1;strokeColor=#B20000;strokeWidth=2;fontFamily=Comic Sans MS;fontSize=40;fontColor=#ffffff;fillColor=#e51400;" parent="TBIVwO9MvjW_WMQPq86C-69" vertex="1">
                    <mxGeometry x="1300" y="-950" width="35" height="35" as="geometry"/>
                </mxCell>
                <mxCell id="TBIVwO9MvjW_WMQPq86C-225" style="edgeStyle=none;sketch=1;hachureGap=4;jiggle=2;disableMultiStroke=1;curveFitting=1;orthogonalLoop=1;jettySize=auto;html=1;strokeColor=default;strokeWidth=5;fontFamily=Comic Sans MS;fontSize=40;fontColor=default;startArrow=none;startFill=0;endArrow=box;endFill=0;startSize=11;endSize=19;rounded=0;" parent="TBIVwO9MvjW_WMQPq86C-69" source="TBIVwO9MvjW_WMQPq86C-196" edge="1">
                    <mxGeometry relative="1" as="geometry">
                        <mxPoint x="780" y="-1480" as="targetPoint"/>
                    </mxGeometry>
                </mxCell>
                <mxCell id="TBIVwO9MvjW_WMQPq86C-66" value="aks-kubenet" style="" parent="0"/>
                <mxCell id="TBIVwO9MvjW_WMQPq86C-63" style="edgeStyle=none;rounded=0;sketch=1;hachureGap=4;jiggle=2;disableMultiStroke=1;curveFitting=1;orthogonalLoop=1;jettySize=auto;html=1;strokeWidth=6;fontFamily=Comic Sans MS;fontSize=40;fontColor=default;endArrow=box;endFill=0;endSize=19;startSize=11;strokeColor=#FF0000;" parent="TBIVwO9MvjW_WMQPq86C-66" edge="1">
                    <mxGeometry relative="1" as="geometry">
                        <mxPoint x="1526" y="-850" as="sourcePoint"/>
                        <mxPoint x="1526" y="-1040" as="targetPoint"/>
                    </mxGeometry>
                </mxCell>
                <mxCell id="TBIVwO9MvjW_WMQPq86C-46" style="edgeStyle=none;rounded=0;hachureGap=4;disableMultiStroke=1;orthogonalLoop=1;jettySize=auto;html=1;exitX=0.002;exitY=0.585;exitDx=0;exitDy=0;strokeWidth=5;fontFamily=Comic Sans MS;fontSize=40;fontColor=default;endArrow=none;endFill=0;strokeColor=#FF8000;exitPerimeter=0;" parent="TBIVwO9MvjW_WMQPq86C-66" edge="1">
                    <mxGeometry relative="1" as="geometry">
                        <mxPoint x="412.8800000000001" y="-1040.6999999999998" as="sourcePoint"/>
                        <mxPoint x="2850" y="-1041" as="targetPoint"/>
                    </mxGeometry>
                </mxCell>
                <mxCell id="TBIVwO9MvjW_WMQPq86C-93" style="edgeStyle=none;rounded=0;sketch=1;hachureGap=4;jiggle=2;disableMultiStroke=1;curveFitting=1;orthogonalLoop=1;jettySize=auto;html=1;strokeWidth=6;fontFamily=Comic Sans MS;fontSize=40;fontColor=default;endArrow=box;endFill=0;endSize=19;startSize=11;strokeColor=#FF0000;exitX=0.5;exitY=0;exitDx=0;exitDy=0;" parent="TBIVwO9MvjW_WMQPq86C-66" edge="1">
                    <mxGeometry relative="1" as="geometry">
                        <mxPoint x="910" y="-820" as="sourcePoint"/>
                        <mxPoint x="910" y="-1040" as="targetPoint"/>
                    </mxGeometry>
                </mxCell>
                <UserObject label="&lt;font color=&quot;#ff8000&quot; face=&quot;Comic Sans MS&quot; style=&quot;font-size: 40px;&quot;&gt;&lt;b style=&quot;&quot;&gt;Pod Network&lt;/b&gt;&lt;/font&gt;" tags="" id="TBIVwO9MvjW_WMQPq86C-94">
                    <mxCell style="text;html=1;align=center;verticalAlign=middle;resizable=0;points=[];autosize=1;strokeColor=none;fillColor=none;sketch=1;curveFitting=1;jiggle=2;fontSize=20;fontFamily=Architects Daughter;strokeWidth=40;glass=0;shadow=0;" parent="TBIVwO9MvjW_WMQPq86C-66" vertex="1">
                        <mxGeometry x="420.00393840815434" y="-1116.9973913043477" width="270" height="60" as="geometry"/>
                    </mxCell>
                </UserObject>
                <mxCell id="TBIVwO9MvjW_WMQPq86C-62" style="edgeStyle=none;rounded=0;sketch=1;hachureGap=4;jiggle=2;disableMultiStroke=1;curveFitting=1;orthogonalLoop=1;jettySize=auto;html=1;exitX=0.25;exitY=0;exitDx=0;exitDy=0;strokeWidth=6;fontFamily=Comic Sans MS;fontSize=40;fontColor=default;endArrow=box;endFill=0;endSize=19;startSize=11;strokeColor=#FF0000;" parent="TBIVwO9MvjW_WMQPq86C-66" source="TBIVwO9MvjW_WMQPq86C-103" edge="1">
                    <mxGeometry relative="1" as="geometry">
                        <mxPoint x="2100" y="-900" as="sourcePoint"/>
                        <mxPoint x="2150" y="-1040" as="targetPoint"/>
                    </mxGeometry>
                </mxCell>
                <mxCell id="0NBLapTMqSNDvY8zPAMU-5" style="edgeStyle=none;rounded=0;sketch=1;hachureGap=4;jiggle=2;disableMultiStroke=1;curveFitting=1;orthogonalLoop=1;jettySize=auto;html=1;strokeWidth=6;fontFamily=Comic Sans MS;fontSize=40;fontColor=default;endArrow=box;endFill=0;endSize=19;startSize=11;strokeColor=#009900;exitX=0.5;exitY=0;exitDx=0;exitDy=0;" parent="TBIVwO9MvjW_WMQPq86C-66" edge="1">
                    <mxGeometry relative="1" as="geometry">
                        <mxPoint x="1140" y="-820" as="sourcePoint"/>
                        <mxPoint x="1140" y="-1040" as="targetPoint"/>
                    </mxGeometry>
                </mxCell>
                <mxCell id="0NBLapTMqSNDvY8zPAMU-6" style="edgeStyle=none;rounded=0;sketch=1;hachureGap=4;jiggle=2;disableMultiStroke=1;curveFitting=1;orthogonalLoop=1;jettySize=auto;html=1;strokeWidth=6;fontFamily=Comic Sans MS;fontSize=40;fontColor=default;endArrow=box;endFill=0;endSize=19;startSize=11;strokeColor=#009900;exitX=0.5;exitY=0;exitDx=0;exitDy=0;" parent="TBIVwO9MvjW_WMQPq86C-66" edge="1">
                    <mxGeometry relative="1" as="geometry">
                        <mxPoint x="1750" y="-820" as="sourcePoint"/>
                        <mxPoint x="1750" y="-1040" as="targetPoint"/>
                    </mxGeometry>
                </mxCell>
                <mxCell id="0NBLapTMqSNDvY8zPAMU-7" style="edgeStyle=none;rounded=0;sketch=1;hachureGap=4;jiggle=2;disableMultiStroke=1;curveFitting=1;orthogonalLoop=1;jettySize=auto;html=1;strokeWidth=6;fontFamily=Comic Sans MS;fontSize=40;fontColor=default;endArrow=box;endFill=0;endSize=19;startSize=11;strokeColor=#009900;exitX=0.5;exitY=0;exitDx=0;exitDy=0;" parent="TBIVwO9MvjW_WMQPq86C-66" edge="1">
                    <mxGeometry relative="1" as="geometry">
                        <mxPoint x="2420" y="-820" as="sourcePoint"/>
                        <mxPoint x="2420" y="-1040" as="targetPoint"/>
                    </mxGeometry>
                </mxCell>
                <mxCell id="TBIVwO9MvjW_WMQPq86C-67" value="Azure-CNI" parent="0"/>
                <mxCell id="TBIVwO9MvjW_WMQPq86C-81" style="edgeStyle=none;rounded=0;sketch=1;hachureGap=4;jiggle=2;disableMultiStroke=1;curveFitting=1;orthogonalLoop=1;jettySize=auto;html=1;exitX=0.5;exitY=0;exitDx=0;exitDy=0;strokeWidth=6;fontFamily=Comic Sans MS;fontSize=40;fontColor=default;endArrow=box;endFill=0;endSize=19;startSize=11;strokeColor=#FF0000;" parent="TBIVwO9MvjW_WMQPq86C-67" source="TBIVwO9MvjW_WMQPq86C-102" edge="1">
                    <mxGeometry relative="1" as="geometry">
                        <mxPoint x="1578" y="-900" as="sourcePoint"/>
                        <mxPoint x="1570" y="-1490" as="targetPoint"/>
                    </mxGeometry>
                </mxCell>
                <mxCell id="TBIVwO9MvjW_WMQPq86C-82" style="edgeStyle=none;rounded=0;sketch=1;hachureGap=4;jiggle=2;disableMultiStroke=1;curveFitting=1;orthogonalLoop=1;jettySize=auto;html=1;exitX=0.583;exitY=0;exitDx=0;exitDy=0;strokeWidth=6;fontFamily=Comic Sans MS;fontSize=40;fontColor=default;endArrow=box;endFill=0;endSize=19;startSize=11;strokeColor=#FF0000;exitPerimeter=0;" parent="TBIVwO9MvjW_WMQPq86C-67" source="TBIVwO9MvjW_WMQPq86C-103" edge="1">
                    <mxGeometry relative="1" as="geometry">
                        <mxPoint x="2173" y="-900" as="sourcePoint"/>
                        <mxPoint x="2185" y="-1490" as="targetPoint"/>
                    </mxGeometry>
                </mxCell>
                <mxCell id="TBIVwO9MvjW_WMQPq86C-80" style="edgeStyle=none;rounded=0;sketch=1;hachureGap=4;jiggle=2;disableMultiStroke=1;curveFitting=1;orthogonalLoop=1;jettySize=auto;html=1;strokeWidth=6;fontFamily=Comic Sans MS;fontSize=40;fontColor=default;endArrow=box;endFill=0;endSize=19;startSize=11;strokeColor=#FF0000;" parent="TBIVwO9MvjW_WMQPq86C-67" edge="1">
                    <mxGeometry relative="1" as="geometry">
                        <mxPoint x="948" y="-830" as="sourcePoint"/>
                        <mxPoint x="958" y="-1480" as="targetPoint"/>
                    </mxGeometry>
                </mxCell>
                <UserObject label="&lt;font color=&quot;#ff0000&quot; face=&quot;Comic Sans MS&quot; style=&quot;font-size: 40px;&quot;&gt;&lt;b style=&quot;&quot;&gt;Pod Network&lt;/b&gt;&lt;/font&gt;" tags="" id="TBIVwO9MvjW_WMQPq86C-95">
                    <mxCell style="text;html=1;align=center;verticalAlign=middle;resizable=0;points=[];autosize=1;strokeColor=none;fillColor=none;sketch=1;curveFitting=1;jiggle=2;fontSize=20;fontFamily=Architects Daughter;strokeWidth=40;" parent="TBIVwO9MvjW_WMQPq86C-67" vertex="1">
                        <mxGeometry x="418.00393840815434" y="-1470.9973913043477" width="270" height="60" as="geometry"/>
                    </mxCell>
                </UserObject>
                <mxCell id="TBIVwO9MvjW_WMQPq86C-68" value="CNI Overlay" parent="0" visible="0"/>
                <mxCell id="TBIVwO9MvjW_WMQPq86C-97" value="Inbound-Services" parent="0" visible="0"/>
                <mxCell id="TBIVwO9MvjW_WMQPq86C-148" style="edgeStyle=none;rounded=0;sketch=1;hachureGap=4;jiggle=2;disableMultiStroke=1;curveFitting=1;orthogonalLoop=1;jettySize=auto;html=1;entryX=0;entryY=0;entryDx=0;entryDy=0;dashed=1;strokeColor=#FF0000;strokeWidth=4;fontFamily=Comic Sans MS;fontSize=20;fontColor=#0066CC;startArrow=none;startFill=0;endArrow=classic;endFill=1;startSize=11;endSize=19;" parent="TBIVwO9MvjW_WMQPq86C-97" source="TBIVwO9MvjW_WMQPq86C-140" target="TBIVwO9MvjW_WMQPq86C-103" edge="1">
                    <mxGeometry relative="1" as="geometry"/>
                </mxCell>
                <mxCell id="TBIVwO9MvjW_WMQPq86C-149" style="edgeStyle=none;rounded=0;sketch=1;hachureGap=4;jiggle=2;disableMultiStroke=1;curveFitting=1;orthogonalLoop=1;jettySize=auto;html=1;exitX=0.5;exitY=1;exitDx=0;exitDy=0;entryX=0;entryY=0.25;entryDx=0;entryDy=0;dashed=1;strokeColor=#FF0000;strokeWidth=4;fontFamily=Comic Sans MS;fontSize=20;fontColor=#0066CC;startArrow=none;startFill=0;endArrow=classic;endFill=1;startSize=11;endSize=19;" parent="TBIVwO9MvjW_WMQPq86C-97" source="TBIVwO9MvjW_WMQPq86C-140" target="TBIVwO9MvjW_WMQPq86C-102" edge="1">
                    <mxGeometry relative="1" as="geometry"/>
                </mxCell>
                <mxCell id="TBIVwO9MvjW_WMQPq86C-141" style="edgeStyle=none;rounded=0;sketch=1;hachureGap=4;jiggle=2;disableMultiStroke=1;curveFitting=1;orthogonalLoop=1;jettySize=auto;html=1;dashed=1;strokeColor=#FF0000;strokeWidth=4;fontFamily=Comic Sans MS;fontSize=20;fontColor=#0066CC;startArrow=none;startFill=0;endArrow=classic;endFill=1;startSize=11;endSize=19;entryX=0.75;entryY=0;entryDx=0;entryDy=0;" parent="TBIVwO9MvjW_WMQPq86C-97" source="TBIVwO9MvjW_WMQPq86C-140" target="TBIVwO9MvjW_WMQPq86C-59" edge="1">
                    <mxGeometry relative="1" as="geometry"/>
                </mxCell>
                <mxCell id="TBIVwO9MvjW_WMQPq86C-145" style="edgeStyle=none;rounded=0;sketch=1;hachureGap=4;jiggle=2;disableMultiStroke=1;curveFitting=1;orthogonalLoop=1;jettySize=auto;html=1;dashed=1;strokeColor=#009900;strokeWidth=4;fontFamily=Comic Sans MS;fontSize=20;fontColor=#0066CC;startArrow=none;startFill=0;endArrow=classic;endFill=1;startSize=11;endSize=19;entryX=0.5;entryY=0;entryDx=0;entryDy=0;" parent="TBIVwO9MvjW_WMQPq86C-97" source="TBIVwO9MvjW_WMQPq86C-144" target="TBIVwO9MvjW_WMQPq86C-60" edge="1">
                    <mxGeometry relative="1" as="geometry"/>
                </mxCell>
                <mxCell id="TBIVwO9MvjW_WMQPq86C-150" style="edgeStyle=none;rounded=0;sketch=1;hachureGap=4;jiggle=2;disableMultiStroke=1;curveFitting=1;orthogonalLoop=1;jettySize=auto;html=1;exitX=1;exitY=0.75;exitDx=0;exitDy=0;entryX=0.25;entryY=0;entryDx=0;entryDy=0;dashed=1;strokeColor=#009900;strokeWidth=4;fontFamily=Comic Sans MS;fontSize=20;fontColor=#0066CC;startArrow=none;startFill=0;endArrow=classic;endFill=1;startSize=11;endSize=19;" parent="TBIVwO9MvjW_WMQPq86C-97" source="TBIVwO9MvjW_WMQPq86C-144" target="TBIVwO9MvjW_WMQPq86C-104" edge="1">
                    <mxGeometry relative="1" as="geometry"/>
                </mxCell>
                <mxCell id="TBIVwO9MvjW_WMQPq86C-151" style="edgeStyle=none;rounded=0;sketch=1;hachureGap=4;jiggle=2;disableMultiStroke=1;curveFitting=1;orthogonalLoop=1;jettySize=auto;html=1;exitX=0;exitY=0.5;exitDx=0;exitDy=0;entryX=0.5;entryY=0;entryDx=0;entryDy=0;dashed=1;strokeColor=#009900;strokeWidth=4;fontFamily=Comic Sans MS;fontSize=20;fontColor=#0066CC;startArrow=none;startFill=0;endArrow=classic;endFill=1;startSize=11;endSize=19;" parent="TBIVwO9MvjW_WMQPq86C-97" source="TBIVwO9MvjW_WMQPq86C-144" target="TBIVwO9MvjW_WMQPq86C-101" edge="1">
                    <mxGeometry relative="1" as="geometry"/>
                </mxCell>
                <mxCell id="TBIVwO9MvjW_WMQPq86C-207" style="edgeStyle=none;curved=1;sketch=0;hachureGap=4;jiggle=2;disableMultiStroke=1;curveFitting=1;orthogonalLoop=1;jettySize=auto;html=1;dashed=1;strokeColor=#FF8000;strokeWidth=6;fontFamily=Comic Sans MS;fontSize=40;fontColor=#3399FF;startArrow=none;startFill=0;endArrow=classic;endFill=1;startSize=11;endSize=19;labelBackgroundColor=none;" parent="TBIVwO9MvjW_WMQPq86C-97" edge="1">
                    <mxGeometry relative="1" as="geometry">
                        <mxPoint x="1130" y="-1900" as="sourcePoint"/>
                        <mxPoint x="1558.5714285714284" y="-1510" as="targetPoint"/>
                    </mxGeometry>
                </mxCell>
                <mxCell id="TBIVwO9MvjW_WMQPq86C-222" style="edgeStyle=none;sketch=0;hachureGap=4;jiggle=2;disableMultiStroke=1;curveFitting=1;orthogonalLoop=1;jettySize=auto;html=1;entryX=0.6;entryY=0.974;entryDx=0;entryDy=0;entryPerimeter=0;dashed=1;strokeColor=#009900;strokeWidth=6;fontFamily=Comic Sans MS;fontSize=40;fontColor=#3399FF;startArrow=none;startFill=0;endArrow=classic;endFill=1;startSize=11;endSize=19;" parent="TBIVwO9MvjW_WMQPq86C-97" source="TBIVwO9MvjW_WMQPq86C-216" edge="1">
                    <mxGeometry relative="1" as="geometry">
                        <mxPoint x="1130" y="-1500" as="targetPoint"/>
                    </mxGeometry>
                </mxCell>
                <mxCell id="TBIVwO9MvjW_WMQPq86C-223" style="edgeStyle=none;sketch=0;hachureGap=4;jiggle=2;disableMultiStroke=1;curveFitting=1;orthogonalLoop=1;jettySize=auto;html=1;dashed=1;strokeColor=#009900;strokeWidth=6;fontFamily=Comic Sans MS;fontSize=40;fontColor=#3399FF;startArrow=none;startFill=0;endArrow=classic;endFill=1;startSize=11;endSize=19;exitX=0.532;exitY=0.977;exitDx=0;exitDy=0;exitPerimeter=0;" parent="TBIVwO9MvjW_WMQPq86C-97" source="TBIVwO9MvjW_WMQPq86C-216" edge="1">
                    <mxGeometry relative="1" as="geometry">
                        <mxPoint x="1739.1999999999998" y="-2384.032" as="sourcePoint"/>
                        <mxPoint x="1750" y="-1480" as="targetPoint"/>
                    </mxGeometry>
                </mxCell>
                <mxCell id="TBIVwO9MvjW_WMQPq86C-224" style="edgeStyle=none;sketch=0;hachureGap=4;jiggle=2;disableMultiStroke=1;curveFitting=1;orthogonalLoop=1;jettySize=auto;html=1;dashed=1;strokeColor=#009900;strokeWidth=6;fontFamily=Comic Sans MS;fontSize=40;fontColor=#3399FF;startArrow=none;startFill=0;endArrow=classic;endFill=1;startSize=11;endSize=19;" parent="TBIVwO9MvjW_WMQPq86C-97" source="TBIVwO9MvjW_WMQPq86C-216" edge="1">
                    <mxGeometry relative="1" as="geometry">
                        <mxPoint x="1749.1999999999998" y="-2374.032" as="sourcePoint"/>
                        <mxPoint x="2310" y="-1500" as="targetPoint"/>
                    </mxGeometry>
                </mxCell>
                <mxCell id="QLG1ZE2IlMm3FKceiq98-1" value="&lt;font size=&quot;1&quot; face=&quot;Comic Sans MS&quot; style=&quot;&quot;&gt;&lt;b style=&quot;font-size: 40px;&quot;&gt;Node port&lt;/b&gt;&lt;/font&gt;" style="text;html=1;align=center;verticalAlign=middle;resizable=0;points=[];autosize=1;strokeColor=none;fillColor=none;fontSize=20;fontFamily=Architects Daughter;fontColor=#CC00CC;" parent="TBIVwO9MvjW_WMQPq86C-97" vertex="1">
                    <mxGeometry x="3150" y="-1520" width="220" height="60" as="geometry"/>
                </mxCell>
                <mxCell id="QLG1ZE2IlMm3FKceiq98-2" value="&lt;b style=&quot;border-color: var(--border-color); color: rgb(204, 0, 204); font-family: &amp;quot;Comic Sans MS&amp;quot;; font-style: normal; font-variant-ligatures: normal; font-variant-caps: normal; letter-spacing: normal; orphans: 2; text-align: center; text-indent: 0px; text-transform: none; widows: 2; word-spacing: 0px; -webkit-text-stroke-width: 0px; background-color: rgb(251, 251, 251); text-decoration-thickness: initial; text-decoration-style: initial; text-decoration-color: initial; font-size: 40px;&quot;&gt;Cluster IP&lt;/b&gt;" style="text;whiteSpace=wrap;html=1;fontSize=40;fontFamily=Comic Sans MS;fontColor=#CC00CC;" parent="TBIVwO9MvjW_WMQPq86C-97" vertex="1">
                    <mxGeometry x="3160" y="-970" width="230" height="70" as="geometry"/>
                </mxCell>
                <mxCell id="QLG1ZE2IlMm3FKceiq98-3" value="&lt;font size=&quot;1&quot; face=&quot;Comic Sans MS&quot; style=&quot;&quot;&gt;&lt;b style=&quot;font-size: 40px;&quot;&gt;Load Balancer&lt;/b&gt;&lt;/font&gt;" style="text;html=1;align=center;verticalAlign=middle;resizable=0;points=[];autosize=1;strokeColor=none;fillColor=none;fontSize=20;fontFamily=Architects Daughter;fontColor=#CC00CC;" parent="TBIVwO9MvjW_WMQPq86C-97" vertex="1">
                    <mxGeometry x="3140" y="-2980" width="290" height="60" as="geometry"/>
                </mxCell>
                <mxCell id="3" style="edgeStyle=none;curved=1;sketch=0;hachureGap=4;jiggle=2;disableMultiStroke=1;curveFitting=1;orthogonalLoop=1;jettySize=auto;html=1;dashed=1;strokeColor=#009900;strokeWidth=6;fontFamily=Comic Sans MS;fontSize=40;fontColor=#3399FF;startArrow=none;startFill=0;endArrow=classic;endFill=1;startSize=11;endSize=19;entryX=0.5;entryY=0;entryDx=0;entryDy=0;" parent="TBIVwO9MvjW_WMQPq86C-97" target="TBIVwO9MvjW_WMQPq86C-140" edge="1">
                    <mxGeometry relative="1" as="geometry">
                        <mxPoint x="800" y="-1580" as="sourcePoint"/>
                        <mxPoint x="980" y="-1470" as="targetPoint"/>
                    </mxGeometry>
                </mxCell>
                <mxCell id="TBIVwO9MvjW_WMQPq86C-208" style="edgeStyle=none;curved=1;sketch=0;hachureGap=4;jiggle=2;disableMultiStroke=1;curveFitting=1;orthogonalLoop=1;jettySize=auto;html=1;dashed=1;strokeColor=#FF8000;strokeWidth=6;fontFamily=Comic Sans MS;fontSize=40;fontColor=#3399FF;startArrow=none;startFill=0;endArrow=classic;endFill=1;startSize=11;endSize=19;" parent="TBIVwO9MvjW_WMQPq86C-97" edge="1">
                    <mxGeometry relative="1" as="geometry">
                        <mxPoint x="1200" y="-1960" as="sourcePoint"/>
                        <mxPoint x="2200" y="-1490" as="targetPoint"/>
                    </mxGeometry>
                </mxCell>
                <mxCell id="11" value="" style="edgeStyle=none;curved=1;sketch=0;hachureGap=4;jiggle=2;disableMultiStroke=1;curveFitting=1;orthogonalLoop=1;jettySize=auto;html=1;dashed=1;strokeColor=#FF8000;strokeWidth=6;fontFamily=Comic Sans MS;fontSize=40;fontColor=#3399FF;startArrow=none;startFill=0;endArrow=classic;endFill=1;startSize=11;endSize=19;entryX=0.222;entryY=0.186;entryDx=0;entryDy=0;entryPerimeter=0;labelBackgroundColor=none;" parent="TBIVwO9MvjW_WMQPq86C-97" target="TBIVwO9MvjW_WMQPq86C-44" edge="1">
                    <mxGeometry relative="1" as="geometry">
                        <mxPoint x="1030" y="-1890" as="sourcePoint"/>
                        <mxPoint x="1026.1111111111095" y="-1680" as="targetPoint"/>
                    </mxGeometry>
                </mxCell>
                <mxCell id="TBIVwO9MvjW_WMQPq86C-187" value="Inbound-Flows" parent="0" visible="0"/>
                <mxCell id="TBIVwO9MvjW_WMQPq86C-190" value="" style="aspect=fixed;perimeter=ellipsePerimeter;html=1;align=center;shadow=0;dashed=0;spacingTop=3;image;image=img/lib/active_directory/user.svg;rounded=0;sketch=1;hachureGap=-8;jiggle=2;disableMultiStroke=1;disableMultiStrokeFill=1;fillStyle=solid;curveFitting=1;strokeColor=default;strokeWidth=2;fontFamily=Comic Sans MS;fontSize=35;fontColor=#000000;fillColor=default;" parent="TBIVwO9MvjW_WMQPq86C-187" vertex="1">
                    <mxGeometry x="860" y="-3595" width="68.5" height="185.14" as="geometry"/>
                </mxCell>
                <mxCell id="TBIVwO9MvjW_WMQPq86C-194" style="edgeStyle=none;curved=1;sketch=0;hachureGap=4;jiggle=2;disableMultiStroke=1;curveFitting=1;orthogonalLoop=1;jettySize=auto;html=1;dashed=1;strokeColor=#000000;strokeWidth=8;fontFamily=Comic Sans MS;fontSize=40;fontColor=#3399FF;startArrow=none;startFill=0;endArrow=classic;endFill=1;startSize=11;endSize=19;flowAnimation=1;exitX=1;exitY=1;exitDx=0;exitDy=0;" parent="TBIVwO9MvjW_WMQPq86C-187" source="TBIVwO9MvjW_WMQPq86C-190" edge="1">
                    <mxGeometry relative="1" as="geometry">
                        <Array as="points">
                            <mxPoint x="1360" y="-2550"/>
                        </Array>
                        <mxPoint x="1260" y="-3060" as="sourcePoint"/>
                        <mxPoint x="1080" y="-2140" as="targetPoint"/>
                    </mxGeometry>
                </mxCell>
                <mxCell id="TBIVwO9MvjW_WMQPq86C-165" value="" style="aspect=fixed;html=1;points=[];align=center;image;fontSize=12;image=img/lib/azure2/networking/Application_Gateways.svg;rounded=0;sketch=1;hachureGap=-8;jiggle=2;disableMultiStroke=1;disableMultiStrokeFill=1;fillStyle=solid;curveFitting=1;strokeColor=default;strokeWidth=2;fontFamily=Comic Sans MS;fontColor=#3399FF;fillColor=default;" parent="TBIVwO9MvjW_WMQPq86C-187" vertex="1">
                    <mxGeometry x="970" y="-2090" width="160" height="160" as="geometry"/>
                </mxCell>
                <mxCell id="TBIVwO9MvjW_WMQPq86C-247" value="" style="aspect=fixed;html=1;points=[];align=center;image;fontSize=12;image=img/lib/azure2/networking/NAT.svg;rounded=0;sketch=1;hachureGap=-8;jiggle=2;disableMultiStroke=1;disableMultiStrokeFill=1;fillStyle=solid;curveFitting=1;strokeColor=default;strokeWidth=2;fontFamily=Comic Sans MS;fontColor=#CC00CC;fillColor=default;" parent="TBIVwO9MvjW_WMQPq86C-187" vertex="1">
                    <mxGeometry x="2610" y="-3080" width="208" height="208" as="geometry"/>
                </mxCell>
                <mxCell id="TBIVwO9MvjW_WMQPq86C-226" value="Outbound Flows" parent="0" visible="0"/>
                <mxCell id="TBIVwO9MvjW_WMQPq86C-228" value="&lt;font color=&quot;#cc00cc&quot;&gt;&lt;b&gt;LB SNAT&lt;/b&gt;&lt;/font&gt;" style="text;html=1;align=center;verticalAlign=middle;resizable=0;points=[];autosize=1;strokeColor=none;fillColor=none;fontSize=40;fontFamily=Comic Sans MS;fontColor=#3399FF;" parent="TBIVwO9MvjW_WMQPq86C-226" vertex="1">
                    <mxGeometry x="1810" y="-3060" width="210" height="60" as="geometry"/>
                </mxCell>
                <mxCell id="TBIVwO9MvjW_WMQPq86C-245" style="edgeStyle=none;curved=1;sketch=0;hachureGap=4;jiggle=2;disableMultiStroke=1;curveFitting=1;orthogonalLoop=1;jettySize=auto;html=1;dashed=1;strokeColor=#CC00CC;strokeWidth=6;fontFamily=Comic Sans MS;fontSize=40;fontColor=#CC00CC;startArrow=none;startFill=0;endArrow=classic;endFill=1;startSize=11;endSize=19;flowAnimation=1;" parent="TBIVwO9MvjW_WMQPq86C-226" edge="1">
                    <mxGeometry relative="1" as="geometry">
                        <mxPoint x="-1670" y="-2190" as="targetPoint"/>
                        <Array as="points">
                            <mxPoint x="2420" y="-1300"/>
                            <mxPoint x="1610" y="-1660"/>
                            <mxPoint x="-1100" y="-1250"/>
                        </Array>
                        <mxPoint x="2360" y="-840" as="sourcePoint"/>
                    </mxGeometry>
                </mxCell>
                <mxCell id="TBIVwO9MvjW_WMQPq86C-246" value="&lt;b&gt;UDR 0/0 via AzFW&lt;/b&gt;" style="edgeLabel;html=1;align=center;verticalAlign=middle;resizable=0;points=[];fontSize=40;fontFamily=Comic Sans MS;fontColor=#CC00CC;labelBackgroundColor=none;" parent="TBIVwO9MvjW_WMQPq86C-245" vertex="1" connectable="0">
                    <mxGeometry x="0.101" y="-51" relative="1" as="geometry">
                        <mxPoint x="-87" y="-6" as="offset"/>
                    </mxGeometry>
                </mxCell>
                <mxCell id="20" value="Option-2" style="edgeLabel;html=1;align=center;verticalAlign=middle;resizable=0;points=[];fontSize=40;fontFamily=Comic Sans MS;fontColor=#000000;labelBackgroundColor=#FF99FF;fontStyle=1" parent="TBIVwO9MvjW_WMQPq86C-245" vertex="1" connectable="0">
                    <mxGeometry x="0.6827" y="-23" relative="1" as="geometry">
                        <mxPoint x="-8" y="-185" as="offset"/>
                    </mxGeometry>
                </mxCell>
                <mxCell id="TBIVwO9MvjW_WMQPq86C-250" style="edgeStyle=none;curved=1;sketch=0;hachureGap=4;jiggle=2;disableMultiStroke=1;curveFitting=1;orthogonalLoop=1;jettySize=auto;html=1;exitX=0.75;exitY=0;exitDx=0;exitDy=0;dashed=1;strokeColor=#CC00CC;strokeWidth=6;fontFamily=Comic Sans MS;fontSize=40;fontColor=#004C99;startArrow=none;startFill=0;endArrow=classic;endFill=1;startSize=11;endSize=19;flowAnimation=1;" parent="TBIVwO9MvjW_WMQPq86C-226" source="TBIVwO9MvjW_WMQPq86C-104" edge="1">
                    <mxGeometry relative="1" as="geometry">
                        <mxPoint x="2680" y="-3160" as="targetPoint"/>
                        <Array as="points">
                            <mxPoint x="2800" y="-1890"/>
                        </Array>
                    </mxGeometry>
                </mxCell>
                <mxCell id="21" value="Option-3" style="edgeLabel;html=1;align=center;verticalAlign=middle;resizable=0;points=[];fontSize=40;fontFamily=Comic Sans MS;fontColor=#000000;labelBackgroundColor=#FF99FF;fontStyle=1" parent="TBIVwO9MvjW_WMQPq86C-250" vertex="1" connectable="0">
                    <mxGeometry x="0.6586" y="26" relative="1" as="geometry">
                        <mxPoint y="11" as="offset"/>
                    </mxGeometry>
                </mxCell>
                <mxCell id="TBIVwO9MvjW_WMQPq86C-248" value="&lt;font size=&quot;1&quot; face=&quot;Comic Sans MS&quot; style=&quot;&quot;&gt;&lt;b style=&quot;font-size: 40px;&quot;&gt;NAT GW IP/Prefix&lt;/b&gt;&lt;/font&gt;" style="text;html=1;align=center;verticalAlign=middle;resizable=0;points=[];autosize=1;strokeColor=none;fillColor=none;fontSize=20;fontFamily=Architects Daughter;fontColor=#CC00CC;" parent="TBIVwO9MvjW_WMQPq86C-226" vertex="1">
                    <mxGeometry x="2800" y="-3100" width="400" height="60" as="geometry"/>
                </mxCell>
                <mxCell id="TBIVwO9MvjW_WMQPq86C-251" value="&lt;font color=&quot;#cc00cc&quot;&gt;Firewall SNAT&lt;/font&gt;" style="edgeLabel;html=1;align=center;verticalAlign=middle;resizable=0;points=[];fontSize=40;fontFamily=Comic Sans MS;fontColor=#004C99;fontStyle=1" parent="TBIVwO9MvjW_WMQPq86C-226" vertex="1" connectable="0">
                    <mxGeometry x="0.8462" y="-3" relative="1" as="geometry">
                        <mxPoint x="-1360" y="-1810" as="offset"/>
                    </mxGeometry>
                </mxCell>
                <mxCell id="0NBLapTMqSNDvY8zPAMU-8" style="edgeStyle=none;sketch=0;hachureGap=4;jiggle=2;curveFitting=1;orthogonalLoop=1;jettySize=auto;html=1;strokeColor=#CC00CC;strokeWidth=6;fontFamily=Comic Sans MS;fontSource=https%3A%2F%2Ffonts.googleapis.com%2Fcss%3Ffamily%3DArchitects%2BDaughter;fontSize=40;endArrow=classic;endFill=1;endSize=19;fontColor=#CC00CC;disableMultiStroke=1;dashed=1;startArrow=none;startFill=0;startSize=11;curved=1;flowAnimation=1;" parent="TBIVwO9MvjW_WMQPq86C-226" edge="1">
                    <mxGeometry relative="1" as="geometry">
                        <mxPoint x="1790" y="-3150" as="targetPoint"/>
                        <Array as="points">
                            <mxPoint x="2420" y="-1130"/>
                            <mxPoint x="2280" y="-1430"/>
                            <mxPoint x="2030" y="-1990"/>
                            <mxPoint x="1790" y="-2730"/>
                        </Array>
                        <mxPoint x="2410" y="-830" as="sourcePoint"/>
                    </mxGeometry>
                </mxCell>
                <mxCell id="19" value="Option-1" style="edgeLabel;html=1;align=center;verticalAlign=middle;resizable=0;points=[];fontSize=40;fontFamily=Comic Sans MS;fontColor=#000000;fontStyle=1;labelBackgroundColor=#FF99FF;" parent="0NBLapTMqSNDvY8zPAMU-8" vertex="1" connectable="0">
                    <mxGeometry x="0.6579" y="-25" relative="1" as="geometry">
                        <mxPoint as="offset"/>
                    </mxGeometry>
                </mxCell>
                <mxCell id="qUfyDGxGpHKbPqtfmTrg-5" value="inbound-private-cluster" parent="0" visible="0"/>
                <mxCell id="8" value="" style="whiteSpace=wrap;html=1;shadow=0;glass=0;fontFamily=Comic Sans MS;fontSize=40;fillColor=#dae8fc;strokeColor=#6c8ebf;" parent="qUfyDGxGpHKbPqtfmTrg-5" vertex="1">
                    <mxGeometry x="-1120" y="-2190" width="860" height="300" as="geometry"/>
                </mxCell>
                <mxCell id="TBIVwO9MvjW_WMQPq86C-203" style="edgeStyle=none;curved=1;sketch=0;hachureGap=4;jiggle=2;disableMultiStroke=1;curveFitting=1;orthogonalLoop=1;jettySize=auto;html=1;dashed=1;strokeColor=#6600CC;strokeWidth=8;fontFamily=Comic Sans MS;fontSize=40;fontColor=#3399FF;startArrow=none;startFill=0;endArrow=classic;endFill=1;startSize=11;endSize=19;flowAnimation=1;" parent="qUfyDGxGpHKbPqtfmTrg-5" target="TBIVwO9MvjW_WMQPq86C-196" edge="1">
                    <mxGeometry relative="1" as="geometry">
                        <mxPoint x="-1900" y="-760" as="sourcePoint"/>
                        <mxPoint x="740" y="-1660" as="targetPoint"/>
                        <Array as="points">
                            <mxPoint x="-740" y="-490"/>
                            <mxPoint x="-280" y="-1290"/>
                            <mxPoint x="440" y="-1090"/>
                            <mxPoint x="550" y="-1770"/>
                        </Array>
                    </mxGeometry>
                </mxCell>
                <mxCell id="qUfyDGxGpHKbPqtfmTrg-14" style="rounded=0;sketch=1;hachureGap=4;jiggle=2;curveFitting=1;orthogonalLoop=1;jettySize=auto;html=1;strokeColor=#6600CC;fontFamily=Architects Daughter;fontSource=https%3A%2F%2Ffonts.googleapis.com%2Fcss%3Ffamily%3DArchitects%2BDaughter;fontSize=40;strokeWidth=6;exitX=0.058;exitY=0.523;exitDx=0;exitDy=0;exitPerimeter=0;endArrow=box;endFill=0;endSize=17;entryX=1.006;entryY=0.574;entryDx=0;entryDy=0;entryPerimeter=0;" parent="qUfyDGxGpHKbPqtfmTrg-5" source="TBIVwO9MvjW_WMQPq86C-196" target="8" edge="1">
                    <mxGeometry relative="1" as="geometry">
                        <mxPoint x="-260" y="-1670" as="targetPoint"/>
                    </mxGeometry>
                </mxCell>
                <mxCell id="qUfyDGxGpHKbPqtfmTrg-11" value="" style="aspect=fixed;html=1;points=[];align=center;image;fontSize=12;image=img/lib/azure2/networking/Private_Endpoint.svg;sketch=1;hachureGap=4;jiggle=2;curveFitting=1;fontFamily=Architects Daughter;fontSource=https%3A%2F%2Ffonts.googleapis.com%2Fcss%3Ffamily%3DArchitects%2BDaughter;" parent="qUfyDGxGpHKbPqtfmTrg-5" vertex="1">
                    <mxGeometry x="-390" y="-2090.42" width="110" height="100.83" as="geometry"/>
                </mxCell>
                <mxCell id="qUfyDGxGpHKbPqtfmTrg-15" value="" style="aspect=fixed;html=1;points=[];align=center;image;fontSize=12;image=img/lib/azure2/networking/Front_Doors.svg;sketch=1;hachureGap=4;jiggle=2;curveFitting=1;fontFamily=Architects Daughter;fontSource=https%3A%2F%2Ffonts.googleapis.com%2Fcss%3Ffamily%3DArchitects%2BDaughter;" parent="qUfyDGxGpHKbPqtfmTrg-5" vertex="1">
                    <mxGeometry x="-810" y="-2900" width="160" height="141.18" as="geometry"/>
                </mxCell>
                <mxCell id="qUfyDGxGpHKbPqtfmTrg-17" value="" style="aspect=fixed;perimeter=ellipsePerimeter;html=1;align=center;shadow=0;dashed=0;spacingTop=3;image;image=img/lib/active_directory/user.svg;rounded=0;sketch=1;hachureGap=-8;jiggle=2;disableMultiStroke=1;disableMultiStrokeFill=1;fillStyle=solid;curveFitting=1;strokeColor=default;strokeWidth=2;fontFamily=Comic Sans MS;fontSize=35;fontColor=#000000;fillColor=default;" parent="qUfyDGxGpHKbPqtfmTrg-5" vertex="1">
                    <mxGeometry x="-1390" y="-3390" width="68.5" height="185.14" as="geometry"/>
                </mxCell>
                <mxCell id="qUfyDGxGpHKbPqtfmTrg-19" style="edgeStyle=none;curved=1;sketch=0;hachureGap=4;jiggle=2;disableMultiStroke=1;curveFitting=1;orthogonalLoop=1;jettySize=auto;html=1;dashed=1;strokeColor=#000000;strokeWidth=8;fontFamily=Comic Sans MS;fontSize=40;fontColor=#3399FF;startArrow=none;startFill=0;endArrow=classic;endFill=1;startSize=11;endSize=19;flowAnimation=1;exitX=1;exitY=0.5;exitDx=0;exitDy=0;entryX=0.233;entryY=0.116;entryDx=0;entryDy=0;entryPerimeter=0;labelBackgroundColor=default;" parent="qUfyDGxGpHKbPqtfmTrg-5" source="qUfyDGxGpHKbPqtfmTrg-17" target="TBIVwO9MvjW_WMQPq86C-196" edge="1">
                    <mxGeometry relative="1" as="geometry">
                        <Array as="points">
                            <mxPoint x="-860" y="-3090"/>
                            <mxPoint x="-750" y="-2860"/>
                            <mxPoint x="-410" y="-2210"/>
                            <mxPoint x="-290" y="-1880"/>
                            <mxPoint x="320" y="-1910"/>
                        </Array>
                        <mxPoint x="-727.2905708966746" y="-2800.004141327939" as="sourcePoint"/>
                        <mxPoint x="730" y="-1660" as="targetPoint"/>
                    </mxGeometry>
                </mxCell>
                <mxCell id="6" style="edgeStyle=none;html=1;fontSize=40;fontColor=#FF0000;strokeColor=#FF0000;strokeWidth=6;dashed=1;exitX=0.941;exitY=0.907;exitDx=0;exitDy=0;exitPerimeter=0;" parent="qUfyDGxGpHKbPqtfmTrg-5" source="qUfyDGxGpHKbPqtfmTrg-15" edge="1">
                    <mxGeometry relative="1" as="geometry">
                        <mxPoint x="720" y="-1810" as="targetPoint"/>
                        <mxPoint x="-370" y="-2710" as="sourcePoint"/>
                    </mxGeometry>
                </mxCell>
                <mxCell id="7" value="&lt;font style=&quot;&quot; face=&quot;Comic Sans MS&quot;&gt;&lt;b&gt;Origin not Routable &lt;br&gt;from Public Internet&lt;/b&gt;&lt;/font&gt;" style="edgeLabel;html=1;align=center;verticalAlign=middle;resizable=0;points=[];fontSize=40;fontColor=#FF0000;" parent="6" vertex="1" connectable="0">
                    <mxGeometry x="-0.0969" y="1" relative="1" as="geometry">
                        <mxPoint x="2" y="1" as="offset"/>
                    </mxGeometry>
                </mxCell>
                <mxCell id="0NBLapTMqSNDvY8zPAMU-9" value="&lt;div style=&quot;text-align: center; font-size: 40px;&quot;&gt;&lt;span style=&quot;font-size: 40px;&quot;&gt;Azure Front Door with Private EP&lt;/span&gt;&lt;/div&gt;" style="text;whiteSpace=wrap;html=1;fontSize=40;fontFamily=Comic Sans MS;fontColor=#000000;fontStyle=1" parent="qUfyDGxGpHKbPqtfmTrg-5" vertex="1">
                    <mxGeometry x="-607" y="-2894" width="310" height="120" as="geometry"/>
                </mxCell>
                <UserObject label="&lt;font size=&quot;1&quot; face=&quot;Comic Sans MS&quot;&gt;&lt;b style=&quot;font-size: 40px;&quot;&gt;Private EP VNET&lt;/b&gt;&lt;/font&gt;" tags="" id="qUfyDGxGpHKbPqtfmTrg-8">
                    <mxCell style="text;html=1;align=center;verticalAlign=middle;resizable=0;points=[];autosize=1;strokeColor=none;fillColor=none;fontSize=60;fontFamily=Architects Daughter;fontColor=#000000;sketch=1;curveFitting=1;jiggle=2;" parent="qUfyDGxGpHKbPqtfmTrg-5" vertex="1">
                        <mxGeometry x="-864.9980269058296" y="-2159.9982668535745" width="350" height="90" as="geometry"/>
                    </mxCell>
                </UserObject>
                <UserObject label="" tags="" id="9">
                    <mxCell style="aspect=fixed;html=1;points=[];align=center;image;fontSize=12;image=img/lib/azure2/networking/Virtual_Networks.svg;rounded=0;glass=0;labelBackgroundColor=#66B2FF;fillStyle=hachure;fontFamily=Comic Sans MS;fontColor=#000000;opacity=70;sketch=1;curveFitting=1;jiggle=2;hachureGap=4;fontSource=https%3A%2F%2Ffonts.googleapis.com%2Fcss%3Ffamily%3DArchitects%2BDaughter;" parent="qUfyDGxGpHKbPqtfmTrg-5" vertex="1">
                        <mxGeometry x="-1110" y="-2174.07" width="191.09" height="114.07" as="geometry"/>
                    </mxCell>
                </UserObject>
                <mxCell id="12" value="" style="aspect=fixed;html=1;points=[];align=center;image;fontSize=12;image=img/lib/azure2/networking/Private_Link.svg;shadow=0;glass=0;fontFamily=Comic Sans MS;fontColor=#FF0000;" parent="qUfyDGxGpHKbPqtfmTrg-5" vertex="1">
                    <mxGeometry x="880" y="-1800" width="120.55" height="110.5" as="geometry"/>
                </mxCell>
                <mxCell id="13" value="&lt;b style=&quot;border-color: var(--border-color); font-family: &amp;quot;Comic Sans MS&amp;quot;; font-size: 40px; font-style: normal; font-variant-ligatures: normal; font-variant-caps: normal; letter-spacing: normal; orphans: 2; text-align: center; text-indent: 0px; text-transform: none; widows: 2; word-spacing: 0px; -webkit-text-stroke-width: 0px; text-decoration-thickness: initial; text-decoration-style: initial; text-decoration-color: initial;&quot;&gt;Private Link Service&lt;/b&gt;" style="text;whiteSpace=wrap;html=1;fontSize=40;fontFamily=Comic Sans MS;fontColor=#000000;labelBackgroundColor=none;" parent="qUfyDGxGpHKbPqtfmTrg-5" vertex="1">
                    <mxGeometry x="790" y="-1810" width="400" height="90" as="geometry"/>
                </mxCell>
                <mxCell id="15" value="" style="aspect=fixed;html=1;points=[];align=center;image;fontSize=12;image=img/lib/azure2/networking/Web_Application_Firewall_Policies_WAF.svg;shadow=0;glass=0;labelBackgroundColor=none;fontFamily=Comic Sans MS;fontColor=#000000;" parent="qUfyDGxGpHKbPqtfmTrg-5" vertex="1">
                    <mxGeometry x="-900" y="-2878" width="88" height="88" as="geometry"/>
                </mxCell>
                <UserObject label="" tags="" id="AdnmBGdy-Vgqc-F4LmRH-23">
                    <mxCell style="edgeStyle=none;jumpStyle=none;jumpSize=2;orthogonalLoop=1;jettySize=auto;html=1;shadow=0;strokeColor=#3399FF;strokeWidth=6;fontFamily=Comic Sans MS;fontSize=25;fontColor=#000000;startArrow=none;startFill=0;endArrow=none;endFill=0;rounded=0;sketch=1;curveFitting=1;jiggle=2;hachureGap=4;fontSource=https%3A%2F%2Ffonts.googleapis.com%2Fcss%3Ffamily%3DArchitects%2BDaughter;disableMultiStroke=1;" parent="qUfyDGxGpHKbPqtfmTrg-5" edge="1">
                        <mxGeometry relative="1" as="geometry">
                            <mxPoint x="-1100" y="-1270" as="sourcePoint"/>
                            <mxPoint x="-270" y="-1270" as="targetPoint"/>
                        </mxGeometry>
                    </mxCell>
                </UserObject>
                <mxCell id="v1ctmR7uPndslogYfaRl-5" value="TODO: IPs" parent="0" visible="0"/>
                <mxCell id="5" value="TODO:AzFw-Assymetric-routing" parent="0" visible="0"/>
                <mxCell id="5YonExv3ogWVhBb2eKY8-5" value="TODO: BYO-CNI-Cilium" parent="0" visible="0"/>
                <mxCell id="v1ctmR7uPndslogYfaRl-7" value="TODO: AKS-DNS" parent="0" visible="0"/>
            </root>
        </mxGraphModel>
    </diagram>
    <diagram id="WMnTZXzj1TWInpKGhyLe" name="Linux-Networking">
        <mxGraphModel dx="2965" dy="1163" grid="1" gridSize="10" guides="1" tooltips="1" connect="1" arrows="1" fold="1" page="1" pageScale="1" pageWidth="850" pageHeight="1100" math="0" shadow="0">
            <root>
                <mxCell id="0"/>
                <mxCell id="1" parent="0"/>
            </root>
        </mxGraphModel>
    </diagram>
    <diagram id="xFQYCLYcjya-JSMh6I0U" name="docker-networking">
        <mxGraphModel dx="2965" dy="1163" grid="1" gridSize="10" guides="1" tooltips="1" connect="1" arrows="1" fold="1" page="1" pageScale="1" pageWidth="850" pageHeight="1100" math="0" shadow="0">
            <root>
                <mxCell id="0"/>
                <mxCell id="1" parent="0"/>
            </root>
        </mxGraphModel>
    </diagram>
    <diagram id="OWiRwokd6dgyUWj0uZWB" name="AzFW or NVA">
        <mxGraphModel dx="1632" dy="797" grid="1" gridSize="10" guides="1" tooltips="1" connect="1" arrows="1" fold="1" page="1" pageScale="1" pageWidth="850" pageHeight="1100" math="0" shadow="0">
            <root>
                <mxCell id="0"/>
                <mxCell id="1" parent="0"/>
            </root>
        </mxGraphModel>
    </diagram>
    <diagram id="VkVXox-Q_weuV1OeezHu" name="Multi-nodepool">
        <mxGraphModel dx="1219" dy="1163" grid="1" gridSize="10" guides="1" tooltips="1" connect="1" arrows="1" fold="1" page="1" pageScale="1" pageWidth="850" pageHeight="1100" math="0" shadow="0">
            <root>
                <mxCell id="0"/>
                <mxCell id="1" parent="0"/>
            </root>
        </mxGraphModel>
    </diagram>
    <diagram id="yMg3yfS3faRN2Bz_cyha" name="Multi-region">
        <mxGraphModel dx="1632" dy="797" grid="1" gridSize="10" guides="1" tooltips="1" connect="1" arrows="1" fold="1" page="1" pageScale="1" pageWidth="850" pageHeight="1100" math="0" shadow="0">
            <root>
                <mxCell id="0"/>
                <mxCell id="1" parent="0"/>
            </root>
        </mxGraphModel>
    </diagram>
    <diagram id="pFTlbzv0GGLEt36gZKj3" name="service-mesh">
        <mxGraphModel dx="1632" dy="797" grid="1" gridSize="10" guides="1" tooltips="1" connect="1" arrows="1" fold="1" page="1" pageScale="1" pageWidth="850" pageHeight="1100" math="0" shadow="0">
            <root>
                <mxCell id="0"/>
                <mxCell id="1" parent="0"/>
            </root>
        </mxGraphModel>
    </diagram>
</mxfile>